G04 DipTrace 4.2.0.1*
G04 1 - Top.gbr*
%MOIN*%
G04 #@! TF.FileFunction,Copper,L1,Top*
G04 #@! TF.Part,Single*
G04 #@! TA.AperFunction,ComponentPad*
%ADD16R,0.090551X0.090551*%
%ADD17C,0.090551*%
%ADD18C,0.062992*%
%ADD19R,0.062992X0.062992*%
%ADD20R,0.075591X0.075591*%
%ADD21C,0.075591*%
%ADD23C,0.050394*%
%ADD24C,0.05*%
%ADD25C,0.05*%
%ADD26R,0.066929X0.066929*%
%ADD27C,0.066929*%
%ADD28R,0.074803X0.074803*%
%ADD29C,0.074803*%
%ADD30C,0.048*%
%FSLAX26Y26*%
G04*
G70*
G90*
G75*
G01*
G04 Top*
%LPD*%
D16*
X543701Y1874803D3*
D17*
Y2012598D3*
D16*
X662598Y2393701D3*
D17*
X524803D3*
D18*
X1093701Y1843701D3*
D19*
X993701D3*
D18*
X1443701Y2393701D3*
D19*
X1543701D3*
D18*
X1743701Y2143701D3*
D19*
Y2243701D3*
D18*
X1093701Y693703D3*
D19*
X993701Y693699D3*
D18*
X1093701Y943701D3*
D19*
X993701D3*
D18*
X1093701Y1243701D3*
D19*
X993701D3*
D18*
X1093701Y1543701D3*
D19*
X993701D3*
D18*
X1743702Y1143701D3*
D19*
X1743700Y1243701D3*
D18*
X2743701Y1143701D3*
D19*
Y1243701D3*
D20*
X1543701Y693701D3*
D21*
X1643701D3*
D23*
X1445276Y1743701D3*
X1642126D3*
D20*
X3043701Y2593701D3*
D21*
X3143701D3*
X3243701D3*
X3343701D3*
D20*
X3593700Y693701D3*
D21*
X3493700Y693698D3*
X3393700Y693694D3*
X3293700Y693690D3*
X3193700Y693687D3*
X3093700Y693683D3*
X2993700Y693679D3*
D24*
X2243701Y743701D3*
D25*
X1943701D3*
D24*
X1743701Y2543695D3*
D25*
X2043701Y2543706D3*
D20*
X4093701Y1743701D3*
D21*
Y1643701D3*
Y1543701D3*
Y1443701D3*
D26*
X915748Y2632283D3*
D27*
Y2455118D3*
X1171654D3*
Y2632283D3*
D28*
X943701Y2143701D3*
D29*
X1043701D3*
X1143701D3*
D19*
X1993701Y2343701D3*
D18*
Y2243701D3*
Y2143701D3*
Y2043701D3*
Y1943701D3*
Y1843701D3*
Y1743701D3*
Y1643701D3*
Y1543701D3*
Y1443701D3*
Y1343701D3*
Y1243701D3*
Y1143701D3*
Y1043701D3*
X2293701D3*
Y1143701D3*
Y1243701D3*
Y1343701D3*
Y1443701D3*
Y1543701D3*
Y1643701D3*
Y1743701D3*
Y1843701D3*
Y1943701D3*
Y2043701D3*
Y2143701D3*
Y2243701D3*
Y2343701D3*
D30*
X1393701Y1098701D3*
Y1288701D3*
M02*
