G04 DipTrace 4.2.0.1*
G04 2 - Bottom.gbr*
%MOIN*%
G04 #@! TF.FileFunction,Copper,L2,Bot*
G04 #@! TF.Part,Single*
G04 #@! TA.AperFunction,Conductor*
%ADD13C,0.023622*%
G04 #@! TA.AperFunction,CopperBalancing*
%ADD14C,0.012992*%
%ADD15C,0.025*%
G04 #@! TA.AperFunction,ComponentPad*
%ADD16R,0.090551X0.090551*%
%ADD17C,0.090551*%
%ADD18C,0.062992*%
%ADD19R,0.062992X0.062992*%
%ADD20R,0.075591X0.075591*%
%ADD21C,0.075591*%
%ADD23C,0.050394*%
%ADD24C,0.05*%
%ADD25C,0.05*%
%ADD26R,0.066929X0.066929*%
%ADD27C,0.066929*%
%ADD28R,0.074803X0.074803*%
%ADD29C,0.074803*%
%ADD30C,0.048*%
%FSLAX26Y26*%
G04*
G70*
G90*
G75*
G01*
G04 Bottom*
%LPD*%
X943701Y2143701D2*
D13*
Y1893701D1*
X993701Y1843701D1*
X574803D1*
X543701Y1874803D1*
X1993701Y2043701D2*
X1942126D1*
X1642126Y1743701D1*
X2293701Y2243701D2*
X3138189D1*
X3393701Y2499213D1*
Y2543701D1*
X3343701Y2593701D1*
X3393701Y693694D2*
Y793701D1*
X3743701Y1143701D1*
Y2193701D1*
X3343701Y2593701D1*
X3393701Y693694D2*
Y643701D1*
X3493701Y543701D1*
X3693701D1*
X4293701Y1143701D1*
Y1743701D1*
X4193701Y1843701D1*
X4043701D1*
X3993701Y1793701D1*
Y1643701D1*
X4093701Y1543701D1*
X2293701Y2343701D2*
X2343701Y2393701D1*
X3093701D1*
X3243701Y2543701D1*
Y2593701D1*
X4093701Y1443701D2*
X3943701D1*
X3843701Y1543701D1*
Y2315945D1*
X3415945Y2743701D1*
X3321457D1*
X3243701Y2665945D1*
Y2593701D1*
X3493700Y693698D2*
Y743700D1*
X4093701Y1343701D1*
Y1443701D1*
X2243701Y2093701D2*
D14*
X2343701D1*
Y1993701D1*
X2993701Y1343701D1*
Y693680D1*
X2243701Y2293701D2*
X3093701D1*
X3293701Y2493701D1*
Y2643701D1*
X3343701Y2693701D1*
X3393701D1*
X3793701Y2293701D1*
Y1143701D1*
X3443701Y793701D1*
Y643701D1*
X3493701Y593701D1*
X3643701D1*
X4243701Y1193701D1*
Y1643701D1*
X4143701Y1743701D1*
X4093701D1*
X3593700Y693701D2*
D13*
X4193701Y1293702D1*
Y1493701D1*
Y1593701D1*
X4143701Y1643701D1*
X4093701D1*
X1543701Y2393701D2*
X1593706D1*
X1743701Y2543695D1*
X3043701Y2593701D2*
Y2643701D1*
X2343701D1*
X1843706D1*
X1835196Y2635190D1*
X1743701Y2543695D1*
X524803Y2393701D2*
Y2474803D1*
X793701Y2743701D1*
X1726685D1*
X1835196Y2635190D1*
X524803Y2393701D2*
Y2374803D1*
X443701Y2293701D1*
Y1793701D1*
X993701Y1243701D1*
Y693699D2*
Y943701D1*
Y1243701D1*
Y1543701D1*
X1143701Y2143701D2*
Y1943701D1*
X1193701Y1893701D1*
Y1743701D1*
X993701Y1543701D1*
X1643701Y693701D2*
Y743591D1*
X1593591Y793701D1*
X1343701D1*
X1143701Y593701D1*
X1043701D1*
X993701Y643701D1*
Y693699D1*
X2293701Y1543701D2*
X2243701D1*
X2122827Y1664575D1*
X2043701Y1743701D1*
X1993701D1*
X2122827Y1664575D2*
Y2422827D1*
X2343701Y2643701D1*
X3043701D2*
X3193701Y2793701D1*
X3493701D1*
X3943701Y2343701D1*
Y1593701D1*
X4043701Y1493701D1*
D14*
X4193701D1*
X915748Y2632283D2*
D13*
X1005118D1*
X1093701Y2543701D1*
X1293701D1*
X1343701Y2493701D1*
Y2293701D1*
X1393701Y2243701D1*
X1743701D1*
X2043701Y2543706D2*
Y2393701D1*
X1993701Y2343701D1*
X1743701Y2243701D2*
X1843701Y2343701D1*
X1993701D1*
X2293701Y1843701D2*
X2343701D1*
X2843701Y1343701D1*
Y893701D1*
X2593701Y643701D1*
X2043701D1*
X2033671Y653731D1*
X1943701Y743701D1*
X1543701Y693701D2*
Y643701D1*
X1593701Y593701D1*
X1973640D1*
X2033671Y653731D1*
X1743699Y1243701D2*
Y1393699D1*
X1893701Y1543701D1*
X1993701D1*
X1393701Y1288701D2*
X1698699D1*
X1743699Y1243701D1*
X1993701Y1443701D2*
X2043701D1*
X2143701Y1343701D1*
Y993701D1*
X2194056Y943345D1*
X2243701Y893701D1*
X2393701D1*
X2743701Y1243701D1*
X1393701Y1098701D2*
X1588701D1*
X1744056Y943345D1*
X2194056D1*
X434694Y2780348D2*
D15*
X782202D1*
X1738187D2*
X3124489D1*
X3562916D2*
X4352715D1*
X434694Y2755479D2*
X749619D1*
X1770770D2*
X3099603D1*
X3211341D2*
X3277373D1*
X3460036D2*
X3476064D1*
X3587784D2*
X4352715D1*
X434694Y2730610D2*
X724752D1*
X1795638D2*
X3074735D1*
X3186473D2*
X3252506D1*
X3484904D2*
X3500932D1*
X3612651D2*
X4352715D1*
X434694Y2705741D2*
X699866D1*
X811604D2*
X1708786D1*
X1820505D2*
X3049868D1*
X3161605D2*
X3227638D1*
X3339357D2*
X3398034D1*
X3509771D2*
X3525800D1*
X3637519D2*
X4352715D1*
X434694Y2680873D2*
X674998D1*
X786736D2*
X853863D1*
X977640D2*
X1134998D1*
X1208303D2*
X1733654D1*
X3136737D2*
X3206538D1*
X3314490D2*
X3422902D1*
X3534639D2*
X3550667D1*
X3662405D2*
X4352715D1*
X434694Y2656004D2*
X650131D1*
X761868D2*
X853863D1*
X1037261D2*
X1114705D1*
X1228596D2*
X1758521D1*
X3111870D2*
X3127844D1*
X3159560D2*
X3203470D1*
X3289622D2*
X3327844D1*
X3359560D2*
X3447769D1*
X3559507D2*
X3575535D1*
X3687273D2*
X4352715D1*
X434694Y2631135D2*
X625263D1*
X737000D2*
X853863D1*
X1062129D2*
X1109771D1*
X1233530D2*
X1775279D1*
X3397759D2*
X3472637D1*
X3584375D2*
X3600403D1*
X3712140D2*
X4352715D1*
X434694Y2606266D2*
X600395D1*
X712133D2*
X853863D1*
X1086997D2*
X1115764D1*
X1227537D2*
X1750411D1*
X3408668D2*
X3497505D1*
X3609242D2*
X3625271D1*
X3737008D2*
X4352715D1*
X434694Y2581398D2*
X575527D1*
X687265D2*
X853863D1*
X977640D2*
X1000145D1*
X1297924D2*
X1706974D1*
X1837263D2*
X2006948D1*
X2080450D2*
X2225536D1*
X2337274D2*
X2977489D1*
X3411879D2*
X3522373D1*
X3634110D2*
X3650138D1*
X3761876D2*
X4352715D1*
X434694Y2556529D2*
X550660D1*
X662397D2*
X1025013D1*
X1336733D2*
X1691920D1*
X1812396D2*
X1991912D1*
X2095486D2*
X2200668D1*
X2312388D2*
X2977489D1*
X3436747D2*
X3547258D1*
X3658978D2*
X3675006D1*
X3786744D2*
X4352715D1*
X434694Y2531660D2*
X525792D1*
X637529D2*
X1049880D1*
X1361600D2*
X1675790D1*
X1795691D2*
X1991715D1*
X2095683D2*
X2175801D1*
X2287520D2*
X2977489D1*
X3109914D2*
X3126660D1*
X3160744D2*
X3175785D1*
X3281961D2*
X3326660D1*
X3461615D2*
X3572126D1*
X3683846D2*
X3699874D1*
X3811611D2*
X4352715D1*
X434694Y2506791D2*
X500924D1*
X612662D2*
X883970D1*
X947515D2*
X1083342D1*
X1381588D2*
X1650923D1*
X1781302D2*
X2003467D1*
X2083931D2*
X2150933D1*
X2262652D2*
X3150917D1*
X3262655D2*
X3345410D1*
X3486483D2*
X3596994D1*
X3708713D2*
X3724741D1*
X3836479D2*
X4352715D1*
X434694Y2481923D2*
X485243D1*
X587794D2*
X860250D1*
X971252D2*
X1116158D1*
X1227142D2*
X1299616D1*
X1383938D2*
X1626055D1*
X1737792D2*
X2003467D1*
X2083931D2*
X2126047D1*
X2237785D2*
X3126050D1*
X3237787D2*
X3320542D1*
X3511350D2*
X3621862D1*
X3733599D2*
X3749609D1*
X3861347D2*
X4352715D1*
X434694Y2457054D2*
X484561D1*
X565043D2*
X588894D1*
X736301D2*
X853881D1*
X977604D2*
X1109789D1*
X1233512D2*
X1303456D1*
X1383938D2*
X1601187D1*
X1712925D2*
X2003467D1*
X2083931D2*
X2101179D1*
X2212917D2*
X3101182D1*
X3212919D2*
X3295674D1*
X3407412D2*
X3424481D1*
X3536218D2*
X3646729D1*
X3758467D2*
X3774477D1*
X3886214D2*
X4352715D1*
X434694Y2432185D2*
X462402D1*
X736301D2*
X858456D1*
X973029D2*
X1114364D1*
X1228937D2*
X1303456D1*
X1383938D2*
X1398585D1*
X1688057D2*
X2003467D1*
X2188049D2*
X3076314D1*
X3188052D2*
X3270807D1*
X3382544D2*
X3449348D1*
X3561086D2*
X3671597D1*
X3783335D2*
X3799345D1*
X3911082D2*
X4352715D1*
X434694Y2407316D2*
X452409D1*
X736301D2*
X878013D1*
X953490D2*
X1133903D1*
X1209398D2*
X1303456D1*
X1663189D2*
X2001457D1*
X2163181D2*
X2301449D1*
X3163184D2*
X3245939D1*
X3357676D2*
X3474216D1*
X3585954D2*
X3696465D1*
X3808202D2*
X3824212D1*
X3935950D2*
X4352715D1*
X434694Y2382448D2*
X451996D1*
X736301D2*
X1303456D1*
X1638321D2*
X1933780D1*
X2163056D2*
X2248825D1*
X3138316D2*
X3221071D1*
X3332809D2*
X3499084D1*
X3610821D2*
X3721332D1*
X3833070D2*
X3849080D1*
X3960818D2*
X4352715D1*
X434694Y2357579D2*
X451709D1*
X736301D2*
X1303456D1*
X1383938D2*
X1396558D1*
X1607120D2*
X1801708D1*
X2063441D2*
X2082591D1*
X2163056D2*
X2235476D1*
X3107115D2*
X3196203D1*
X3307941D2*
X3523952D1*
X3635689D2*
X3746200D1*
X3857938D2*
X3873948D1*
X3981290D2*
X4352715D1*
X564039Y2332710D2*
X588894D1*
X736301D2*
X1303456D1*
X1383938D2*
X1776840D1*
X2053627D2*
X2082591D1*
X2163056D2*
X2234848D1*
X2352560D2*
X3171336D1*
X3283073D2*
X3548819D1*
X3660557D2*
X3771068D1*
X3880007D2*
X3898816D1*
X3983945D2*
X4352715D1*
X513711Y2307841D2*
X1303456D1*
X1385428D2*
X1751972D1*
X2053627D2*
X2082591D1*
X2163056D2*
X2246349D1*
X2341041D2*
X3146468D1*
X3258205D2*
X3573687D1*
X3685425D2*
X3795936D1*
X3883936D2*
X3903463D1*
X3983945D2*
X4352715D1*
X488843Y2282972D2*
X1305017D1*
X1410295D2*
X1683775D1*
X1838842D2*
X1949318D1*
X2038089D2*
X2082591D1*
X2163056D2*
X2249309D1*
X2338099D2*
X3121600D1*
X3233320D2*
X3598555D1*
X3710292D2*
X3803471D1*
X3883936D2*
X3903463D1*
X3983945D2*
X4352715D1*
X483945Y2258104D2*
X1323426D1*
X1813974D2*
X1935610D1*
X2051779D2*
X2082591D1*
X2163056D2*
X2235620D1*
X3208452D2*
X3623422D1*
X3735160D2*
X3803471D1*
X3883936D2*
X3903463D1*
X3983945D2*
X4352715D1*
X483945Y2233235D2*
X1348293D1*
X1803622D2*
X1934749D1*
X2052658D2*
X2082591D1*
X2163056D2*
X2234740D1*
X3183584D2*
X3648308D1*
X3760028D2*
X3803471D1*
X3883936D2*
X3903463D1*
X3983945D2*
X4352715D1*
X483945Y2208366D2*
X1377952D1*
X1803622D2*
X1945944D1*
X2041462D2*
X2082591D1*
X2163056D2*
X2245936D1*
X3153944D2*
X3673176D1*
X3780966D2*
X3803471D1*
X3883936D2*
X3903463D1*
X3983945D2*
X4352715D1*
X483945Y2183497D2*
X877870D1*
X1195457D2*
X1699815D1*
X1787600D2*
X1949802D1*
X2037587D2*
X2082591D1*
X2163056D2*
X2249812D1*
X2337597D2*
X3698044D1*
X3783945D2*
X3803471D1*
X3883936D2*
X3903463D1*
X3983945D2*
X4352715D1*
X483945Y2158629D2*
X877870D1*
X1207747D2*
X1685748D1*
X1801648D2*
X1935753D1*
X2051653D2*
X2082591D1*
X2163056D2*
X2235745D1*
X2351645D2*
X3703462D1*
X3783945D2*
X3803471D1*
X3883936D2*
X3903463D1*
X3983945D2*
X4352715D1*
X483945Y2133760D2*
X877870D1*
X1208734D2*
X1684654D1*
X1802761D2*
X1934641D1*
X2052748D2*
X2082591D1*
X2163056D2*
X2234651D1*
X2352758D2*
X3703462D1*
X3783945D2*
X3803471D1*
X3883936D2*
X3903463D1*
X3983945D2*
X4352715D1*
X483945Y2108891D2*
X877870D1*
X1199099D2*
X1695527D1*
X1791870D2*
X1945532D1*
X2041875D2*
X2082591D1*
X2163056D2*
X2245541D1*
X2341867D2*
X3703462D1*
X3783945D2*
X3803471D1*
X3883936D2*
X3903463D1*
X3983945D2*
X4352715D1*
X483945Y2084022D2*
X877870D1*
X1009523D2*
X1020025D1*
X1067386D2*
X1103455D1*
X1183938D2*
X1950322D1*
X2037084D2*
X2082591D1*
X2163056D2*
X2250314D1*
X2337076D2*
X3703462D1*
X3783945D2*
X3803471D1*
X3883936D2*
X3903463D1*
X3983945D2*
X4352715D1*
X600066Y2059154D2*
X903473D1*
X983937D2*
X1103455D1*
X1183938D2*
X1901717D1*
X2051510D2*
X2082591D1*
X2163056D2*
X2235907D1*
X2351502D2*
X3703462D1*
X3783945D2*
X3803471D1*
X3883936D2*
X3903463D1*
X3983945D2*
X4352715D1*
X614025Y2034285D2*
X903473D1*
X983937D2*
X1103455D1*
X1183938D2*
X1876849D1*
X2052838D2*
X2082591D1*
X2163056D2*
X2234561D1*
X2352847D2*
X3703462D1*
X3783945D2*
X3803471D1*
X3883936D2*
X3903463D1*
X3983945D2*
X4352715D1*
X617327Y2009416D2*
X903473D1*
X983937D2*
X1103455D1*
X1183938D2*
X1851982D1*
X2042270D2*
X2082591D1*
X2163056D2*
X2245147D1*
X2342261D2*
X3703462D1*
X3783945D2*
X3803471D1*
X3883936D2*
X3903463D1*
X3983945D2*
X4352715D1*
X611639Y1984547D2*
X903473D1*
X983937D2*
X1103455D1*
X1183938D2*
X1827114D1*
X1938834D2*
X1950843D1*
X2036564D2*
X2082591D1*
X2163056D2*
X2250834D1*
X2336556D2*
X3703462D1*
X3783945D2*
X3803471D1*
X3883936D2*
X3903463D1*
X3983945D2*
X4352715D1*
X483945Y1959678D2*
X493568D1*
X593840D2*
X903473D1*
X983937D2*
X1103455D1*
X1183938D2*
X1802228D1*
X1913966D2*
X1936040D1*
X2051348D2*
X2082591D1*
X2163056D2*
X2236050D1*
X2351358D2*
X3703462D1*
X3783945D2*
X3803471D1*
X3883936D2*
X3903463D1*
X3983945D2*
X4352715D1*
X617398Y1934810D2*
X903473D1*
X983937D2*
X1104532D1*
X1208465D2*
X1777361D1*
X1889098D2*
X1934479D1*
X2052927D2*
X2082591D1*
X2163056D2*
X2234471D1*
X2352937D2*
X3703462D1*
X3783945D2*
X3803471D1*
X3883936D2*
X3903463D1*
X3983945D2*
X4352715D1*
X617398Y1909941D2*
X903473D1*
X983937D2*
X1121595D1*
X1230264D2*
X1752493D1*
X1864230D2*
X1944760D1*
X2042646D2*
X2082591D1*
X2163056D2*
X2244752D1*
X2342656D2*
X3703462D1*
X3783945D2*
X3803471D1*
X3883936D2*
X3903463D1*
X3983945D2*
X4352715D1*
X617398Y1885072D2*
X904460D1*
X1136015D2*
X1146463D1*
X1233942D2*
X1727625D1*
X1839363D2*
X1951381D1*
X2036026D2*
X2082591D1*
X2163056D2*
X2251373D1*
X2336018D2*
X3703462D1*
X3783945D2*
X3803471D1*
X3883936D2*
X3903463D1*
X3983945D2*
X4352715D1*
X1233942Y1860203D2*
X1702757D1*
X1814495D2*
X1936202D1*
X2051205D2*
X2082591D1*
X2163056D2*
X2236194D1*
X2383062D2*
X3703462D1*
X3783945D2*
X3803471D1*
X3883936D2*
X3903463D1*
X3983945D2*
X4004333D1*
X4233071D2*
X4352715D1*
X1233942Y1835335D2*
X1677890D1*
X1789627D2*
X1934390D1*
X2053017D2*
X2082591D1*
X2163056D2*
X2234399D1*
X2407930D2*
X3703462D1*
X3783945D2*
X3803471D1*
X3883936D2*
X3903463D1*
X4257939D2*
X4352715D1*
X1143030Y1810466D2*
X1153460D1*
X1233942D2*
X1653022D1*
X1764759D2*
X1944383D1*
X2043023D2*
X2082591D1*
X2163056D2*
X2244375D1*
X2432797D2*
X3703462D1*
X3783945D2*
X3803471D1*
X3883936D2*
X3903463D1*
X4282807D2*
X4352715D1*
X507665Y1785597D2*
X1153460D1*
X1233942D2*
X1413477D1*
X1477076D2*
X1610338D1*
X1739892D2*
X1951937D1*
X2035470D2*
X2082591D1*
X2163056D2*
X2251929D1*
X2335461D2*
X2345945D1*
X2457665D2*
X3703462D1*
X3783945D2*
X3803471D1*
X3883936D2*
X3903463D1*
X4159921D2*
X4195937D1*
X4307674D2*
X4352715D1*
X532532Y1760728D2*
X1153460D1*
X1233942D2*
X1394566D1*
X1495987D2*
X1591427D1*
X1715024D2*
X1936363D1*
X2163056D2*
X2236355D1*
X2351035D2*
X2370813D1*
X2482533D2*
X3703462D1*
X3783945D2*
X3803471D1*
X3883936D2*
X3903463D1*
X4159921D2*
X4220804D1*
X4329869D2*
X4352715D1*
X434694Y1735860D2*
X445680D1*
X557418D2*
X1129992D1*
X1233117D2*
X1392251D1*
X1498301D2*
X1589112D1*
X1695144D2*
X1934318D1*
X2163056D2*
X2234310D1*
X2353081D2*
X2395681D1*
X2507400D2*
X3703462D1*
X3783945D2*
X3803471D1*
X3883936D2*
X3903463D1*
X4159921D2*
X4245672D1*
X4333941D2*
X4352715D1*
X434694Y1710991D2*
X470548D1*
X582286D2*
X1105124D1*
X1216862D2*
X1403483D1*
X1487070D2*
X1600344D1*
X1683912D2*
X1944007D1*
X2163056D2*
X2243998D1*
X2343392D2*
X2420549D1*
X2532286D2*
X3703462D1*
X3783945D2*
X3803471D1*
X3883936D2*
X3903463D1*
X4159921D2*
X4253459D1*
X4333941D2*
X4352715D1*
X434694Y1686122D2*
X495416D1*
X607153D2*
X1080256D1*
X1191994D2*
X1952493D1*
X2034895D2*
X2045415D1*
X2163056D2*
X2252503D1*
X2334905D2*
X2445416D1*
X2557154D2*
X3703462D1*
X3783945D2*
X3803471D1*
X3883936D2*
X3903463D1*
X4159921D2*
X4253459D1*
X4333941D2*
X4352715D1*
X434694Y1661253D2*
X520284D1*
X632021D2*
X1055389D1*
X1167126D2*
X1936525D1*
X2050882D2*
X2070283D1*
X2182021D2*
X2236535D1*
X2350874D2*
X2470284D1*
X2582022D2*
X3703462D1*
X3783945D2*
X3803471D1*
X3883936D2*
X3903463D1*
X4182008D2*
X4253459D1*
X4333941D2*
X4352715D1*
X434694Y1636385D2*
X545151D1*
X656889D2*
X1030521D1*
X1142258D2*
X1934246D1*
X2053161D2*
X2095151D1*
X2206888D2*
X2234256D1*
X2353152D2*
X2495152D1*
X2606889D2*
X3703462D1*
X3783945D2*
X3803471D1*
X3883936D2*
X3903463D1*
X4206876D2*
X4253459D1*
X4333941D2*
X4352715D1*
X434694Y1611516D2*
X570019D1*
X681757D2*
X1005653D1*
X1117391D2*
X1943648D1*
X2043759D2*
X2120019D1*
X2231756D2*
X2243640D1*
X2343751D2*
X2520020D1*
X2631757D2*
X3703462D1*
X3783945D2*
X3803471D1*
X3883936D2*
X3903463D1*
X4229465D2*
X4253459D1*
X4333941D2*
X4352715D1*
X434694Y1586647D2*
X594887D1*
X706624D2*
X933777D1*
X1134310D2*
X1953085D1*
X2034321D2*
X2144886D1*
X2334313D2*
X2544887D1*
X2656625D2*
X3703462D1*
X3783945D2*
X3803471D1*
X3883936D2*
X3904127D1*
X4233932D2*
X4253459D1*
X4333941D2*
X4352715D1*
X434694Y1561778D2*
X619755D1*
X731492D2*
X933777D1*
X1150709D2*
X1855911D1*
X2050702D2*
X2169754D1*
X2350694D2*
X2569755D1*
X2681493D2*
X3703462D1*
X3783945D2*
X3803471D1*
X3883936D2*
X3919754D1*
X4233932D2*
X4253459D1*
X4333941D2*
X4352715D1*
X434694Y1536909D2*
X644622D1*
X756360D2*
X933777D1*
X1153221D2*
X1831043D1*
X2053214D2*
X2194622D1*
X2353224D2*
X2594623D1*
X2706360D2*
X3703462D1*
X3783945D2*
X3804081D1*
X3906363D2*
X3944622D1*
X4233932D2*
X4253459D1*
X4333941D2*
X4352715D1*
X434694Y1512041D2*
X669490D1*
X781228D2*
X933777D1*
X1144106D2*
X1806176D1*
X2044100D2*
X2220674D1*
X2344110D2*
X2619491D1*
X2731228D2*
X3703462D1*
X3783945D2*
X3819494D1*
X3931231D2*
X3969490D1*
X4233932D2*
X4253459D1*
X4333941D2*
X4352715D1*
X434694Y1487172D2*
X694358D1*
X806095D2*
X933777D1*
X1053624D2*
X1081118D1*
X1106285D2*
X1781308D1*
X1893045D2*
X1953677D1*
X2033711D2*
X2253687D1*
X2333721D2*
X2644358D1*
X2756096D2*
X3703462D1*
X3783945D2*
X3844361D1*
X3956099D2*
X3994357D1*
X4233932D2*
X4253459D1*
X4333941D2*
X4352715D1*
X434694Y1462303D2*
X719226D1*
X830963D2*
X953460D1*
X1033942D2*
X1756440D1*
X1868178D2*
X1936884D1*
X2080971D2*
X2236875D1*
X2350533D2*
X2669226D1*
X2780964D2*
X3703462D1*
X3783945D2*
X3869229D1*
X4233932D2*
X4253459D1*
X4333941D2*
X4352715D1*
X434694Y1437434D2*
X744093D1*
X855831D2*
X953460D1*
X1033942D2*
X1731572D1*
X1843310D2*
X1934121D1*
X2105839D2*
X2234130D1*
X2353278D2*
X2694094D1*
X2805831D2*
X3703462D1*
X3783945D2*
X3894097D1*
X4233932D2*
X4253459D1*
X4333941D2*
X4352715D1*
X434694Y1412566D2*
X768961D1*
X880699D2*
X953460D1*
X1033942D2*
X1708517D1*
X1818424D2*
X1942948D1*
X2130706D2*
X2242958D1*
X2344450D2*
X2718962D1*
X2830699D2*
X3703462D1*
X3783945D2*
X3919880D1*
X4233932D2*
X4253459D1*
X4333941D2*
X4352715D1*
X434694Y1387697D2*
X793829D1*
X905566D2*
X953460D1*
X1033942D2*
X1703457D1*
X1793556D2*
X1954305D1*
X2033101D2*
X2043836D1*
X2155574D2*
X2254297D1*
X2333093D2*
X2743829D1*
X2855567D2*
X3703462D1*
X3783945D2*
X4053459D1*
X4133941D2*
X4153468D1*
X4233932D2*
X4253459D1*
X4333941D2*
X4352715D1*
X434694Y1362828D2*
X818714D1*
X930434D2*
X953460D1*
X1033942D2*
X1703457D1*
X1783939D2*
X1937063D1*
X2050344D2*
X2068704D1*
X2178737D2*
X2237055D1*
X2350335D2*
X2768715D1*
X2878730D2*
X3703462D1*
X3783945D2*
X4053459D1*
X4133941D2*
X4153468D1*
X4233932D2*
X4253459D1*
X4333941D2*
X4352715D1*
X434694Y1337959D2*
X843582D1*
X1033942D2*
X1383065D1*
X1404339D2*
X1703457D1*
X1783939D2*
X1934067D1*
X2053340D2*
X2093572D1*
X2183940D2*
X2234059D1*
X2353332D2*
X2793583D1*
X2883933D2*
X3703462D1*
X3783945D2*
X4032090D1*
X4133492D2*
X4153468D1*
X4233932D2*
X4253459D1*
X4333941D2*
X4352715D1*
X434694Y1313091D2*
X868450D1*
X1033942D2*
X1347647D1*
X1783939D2*
X1942625D1*
X2044782D2*
X2103458D1*
X2183940D2*
X2242617D1*
X2344791D2*
X2803469D1*
X2883933D2*
X3703462D1*
X3783945D2*
X4007222D1*
X4118959D2*
X4153468D1*
X4233932D2*
X4253459D1*
X4333941D2*
X4352715D1*
X434694Y1288222D2*
X893318D1*
X1132462D2*
X1341278D1*
X1803622D2*
X1954933D1*
X2032473D2*
X2103458D1*
X2183940D2*
X2254943D1*
X2332465D2*
X2683777D1*
X2883933D2*
X3703462D1*
X3783945D2*
X3982354D1*
X4094092D2*
X4132350D1*
X4233538D2*
X4253459D1*
X4333941D2*
X4352715D1*
X434694Y1263353D2*
X918185D1*
X1150153D2*
X1348186D1*
X1803622D2*
X1937243D1*
X2050146D2*
X2103458D1*
X2183940D2*
X2237252D1*
X2350156D2*
X2683777D1*
X2883933D2*
X3703462D1*
X3783945D2*
X3957486D1*
X4069224D2*
X4107482D1*
X4219220D2*
X4253459D1*
X4333941D2*
X4352715D1*
X434694Y1238484D2*
X933777D1*
X1153382D2*
X1683775D1*
X1803622D2*
X1934013D1*
X2053376D2*
X2103458D1*
X2183940D2*
X2234023D1*
X2353386D2*
X2682611D1*
X2883933D2*
X3703462D1*
X3783945D2*
X3932619D1*
X4044356D2*
X4082614D1*
X4194352D2*
X4253459D1*
X4333941D2*
X4352715D1*
X434694Y1213615D2*
X933777D1*
X1145111D2*
X1683775D1*
X1803622D2*
X1942284D1*
X2045105D2*
X2103458D1*
X2183940D2*
X2242294D1*
X2345114D2*
X2657743D1*
X2883933D2*
X3703462D1*
X3783945D2*
X3907751D1*
X4019488D2*
X4057747D1*
X4169484D2*
X4253459D1*
X4333941D2*
X4352715D1*
X434694Y1188747D2*
X933777D1*
X1053624D2*
X1074551D1*
X1112851D2*
X1683775D1*
X1803622D2*
X1955597D1*
X2031809D2*
X2103458D1*
X2183940D2*
X2255589D1*
X2331819D2*
X2632875D1*
X2883933D2*
X3703462D1*
X3783945D2*
X3882883D1*
X3994621D2*
X4032879D1*
X4144617D2*
X4253459D1*
X4333941D2*
X4352715D1*
X434694Y1163878D2*
X953460D1*
X1033942D2*
X1687435D1*
X1799962D2*
X1937440D1*
X2049967D2*
X2103458D1*
X2183940D2*
X2237450D1*
X2349959D2*
X2608008D1*
X2883933D2*
X3703462D1*
X3783945D2*
X3858015D1*
X3969753D2*
X4008011D1*
X4119749D2*
X4253459D1*
X4333941D2*
X4352715D1*
X434694Y1139009D2*
X953460D1*
X1033942D2*
X1361750D1*
X1425654D2*
X1683972D1*
X1803425D2*
X1933977D1*
X2053430D2*
X2103458D1*
X2183940D2*
X2233969D1*
X2353421D2*
X2583140D1*
X2883933D2*
X3683134D1*
X3783640D2*
X3833148D1*
X3944885D2*
X3983144D1*
X4094881D2*
X4233149D1*
X4333636D2*
X4352715D1*
X434694Y1114140D2*
X953460D1*
X1033942D2*
X1343718D1*
X1629135D2*
X1691974D1*
X1795422D2*
X1941979D1*
X2045427D2*
X2103458D1*
X2183940D2*
X2241971D1*
X2345437D2*
X2558272D1*
X2670010D2*
X2691977D1*
X2795425D2*
X2803469D1*
X2883933D2*
X3658266D1*
X3770004D2*
X3808280D1*
X3919999D2*
X3958276D1*
X4070013D2*
X4208281D1*
X4320000D2*
X4352715D1*
X434694Y1089272D2*
X953460D1*
X1033942D2*
X1342175D1*
X1654003D2*
X1722906D1*
X1764490D2*
X1956261D1*
X2031128D2*
X2103458D1*
X2183940D2*
X2256271D1*
X2331137D2*
X2533404D1*
X2645142D2*
X2722909D1*
X2764493D2*
X2803469D1*
X2883933D2*
X3633398D1*
X3745136D2*
X3783412D1*
X3895132D2*
X3933408D1*
X4045146D2*
X4183413D1*
X4295133D2*
X4352715D1*
X434694Y1064403D2*
X953460D1*
X1033942D2*
X1354914D1*
X1678871D2*
X1937637D1*
X2049752D2*
X2103458D1*
X2183940D2*
X2237647D1*
X2349761D2*
X2508537D1*
X2620274D2*
X2803469D1*
X2883933D2*
X3608531D1*
X3720268D2*
X3758544D1*
X3870264D2*
X3908540D1*
X4020278D2*
X4158527D1*
X4270265D2*
X4352715D1*
X434694Y1039534D2*
X953460D1*
X1033942D2*
X1592001D1*
X1703738D2*
X1933923D1*
X2053466D2*
X2103458D1*
X2183940D2*
X2233933D1*
X2353475D2*
X2483669D1*
X2595406D2*
X2803469D1*
X2883933D2*
X3583663D1*
X3695400D2*
X3733659D1*
X3845396D2*
X3883673D1*
X3995392D2*
X4133660D1*
X4245397D2*
X4352715D1*
X434694Y1014665D2*
X953460D1*
X1033942D2*
X1616868D1*
X1728606D2*
X1941656D1*
X2045732D2*
X2103458D1*
X2183940D2*
X2241666D1*
X2345742D2*
X2458801D1*
X2570539D2*
X2803469D1*
X2883933D2*
X3558795D1*
X3670533D2*
X3708791D1*
X3820528D2*
X3858805D1*
X3970524D2*
X4108792D1*
X4220529D2*
X4352715D1*
X434694Y989797D2*
X933777D1*
X1130435D2*
X1641736D1*
X1753474D2*
X1971422D1*
X2015985D2*
X2103673D1*
X2203479D2*
X2271414D1*
X2315994D2*
X2433933D1*
X2545671D2*
X2803469D1*
X2883933D2*
X3533927D1*
X3645665D2*
X3683923D1*
X3795661D2*
X3833937D1*
X3945657D2*
X4083924D1*
X4195662D2*
X4352715D1*
X434694Y964928D2*
X933777D1*
X1149561D2*
X1666604D1*
X2228347D2*
X2409066D1*
X2520803D2*
X2803469D1*
X2883933D2*
X3509060D1*
X3620797D2*
X3659055D1*
X3770793D2*
X3809051D1*
X3920789D2*
X4059057D1*
X4170794D2*
X4352715D1*
X434694Y940059D2*
X933777D1*
X1153508D2*
X1691472D1*
X2253215D2*
X2384198D1*
X2495918D2*
X2803469D1*
X2883933D2*
X3484192D1*
X3595929D2*
X3634188D1*
X3745925D2*
X3784184D1*
X3895921D2*
X4034189D1*
X4145926D2*
X4352715D1*
X434694Y915190D2*
X933777D1*
X1146044D2*
X1716429D1*
X2471050D2*
X2803469D1*
X2883933D2*
X3459324D1*
X3571062D2*
X3609320D1*
X3721058D2*
X3759316D1*
X3871053D2*
X4009321D1*
X4121059D2*
X4352715D1*
X434694Y890322D2*
X933777D1*
X1053624D2*
X1070029D1*
X1117355D2*
X2191213D1*
X2446182D2*
X2784450D1*
X2883790D2*
X3434456D1*
X3546194D2*
X3584452D1*
X3696190D2*
X3734448D1*
X3846186D2*
X3984453D1*
X4096191D2*
X4352715D1*
X434694Y865453D2*
X953460D1*
X1033942D2*
X2216188D1*
X2421225D2*
X2759582D1*
X2871320D2*
X3409589D1*
X3521326D2*
X3559585D1*
X3671322D2*
X3709580D1*
X3821318D2*
X3959586D1*
X4071323D2*
X4352715D1*
X434694Y840584D2*
X953460D1*
X1033942D2*
X2734715D1*
X2846452D2*
X3384721D1*
X3496458D2*
X3534717D1*
X3646454D2*
X3684713D1*
X3796450D2*
X3934718D1*
X4046455D2*
X4352715D1*
X434694Y815715D2*
X953460D1*
X1033942D2*
X1309843D1*
X1627448D2*
X2709847D1*
X2821584D2*
X3360553D1*
X3471591D2*
X3509849D1*
X3621587D2*
X3659845D1*
X3771582D2*
X3909850D1*
X4021588D2*
X4352715D1*
X434694Y790846D2*
X953460D1*
X1033942D2*
X1284976D1*
X1652316D2*
X1921956D1*
X1965460D2*
X2221948D1*
X2265451D2*
X2684979D1*
X2796717D2*
X3353466D1*
X3446705D2*
X3484981D1*
X3596719D2*
X3634977D1*
X3746715D2*
X3884982D1*
X3996720D2*
X4352715D1*
X434694Y765978D2*
X953460D1*
X1033942D2*
X1260108D1*
X1676574D2*
X1895402D1*
X1991996D2*
X2195411D1*
X2291988D2*
X2660111D1*
X2771849D2*
X3353466D1*
X3433930D2*
X3460742D1*
X3571851D2*
X3610109D1*
X3721847D2*
X3860115D1*
X3971852D2*
X4352715D1*
X434694Y741109D2*
X933777D1*
X1128604D2*
X1235240D1*
X1346978D2*
X1477476D1*
X1688775D2*
X1890342D1*
X2002151D2*
X2190334D1*
X2297065D2*
X2635244D1*
X2746981D2*
X2948656D1*
X3038756D2*
X3048648D1*
X3138765D2*
X3148639D1*
X3238756D2*
X3248630D1*
X3338765D2*
X3348639D1*
X3438775D2*
X3448631D1*
X3696979D2*
X3835247D1*
X3946984D2*
X4352715D1*
X434694Y716240D2*
X933777D1*
X1149023D2*
X1210372D1*
X1322110D2*
X1477476D1*
X1705802D2*
X1898308D1*
X2027037D2*
X2198318D1*
X2289081D2*
X2610376D1*
X2722114D2*
X2931611D1*
X3672111D2*
X3810379D1*
X3922099D2*
X4352715D1*
X434694Y691371D2*
X933777D1*
X1153580D2*
X1185505D1*
X1297242D2*
X1477476D1*
X1709874D2*
X1940167D1*
X2051905D2*
X2585508D1*
X2697246D2*
X2927520D1*
X3659929D2*
X3785511D1*
X3897231D2*
X4352715D1*
X434694Y666503D2*
X933777D1*
X1146780D2*
X1160637D1*
X1272374D2*
X1477476D1*
X1703828D2*
X1965035D1*
X2672378D2*
X2933567D1*
X3659929D2*
X3760644D1*
X3872363D2*
X4352715D1*
X434694Y641634D2*
X933777D1*
X1053624D2*
X1066997D1*
X1120405D2*
X1135769D1*
X1247507D2*
X1477476D1*
X1682925D2*
X1965699D1*
X2647492D2*
X2954434D1*
X3032960D2*
X3054443D1*
X3132952D2*
X3154452D1*
X3232961D2*
X3254461D1*
X3332952D2*
X3353520D1*
X3659929D2*
X3735758D1*
X3847495D2*
X4352715D1*
X434694Y616765D2*
X964763D1*
X1222639D2*
X1514778D1*
X2622625D2*
X3364769D1*
X3476507D2*
X3710890D1*
X3822628D2*
X4352715D1*
X434694Y591896D2*
X989631D1*
X1197771D2*
X1539646D1*
X2027701D2*
X3389637D1*
X3501375D2*
X3686022D1*
X3797760D2*
X4352715D1*
X434694Y567028D2*
X1014499D1*
X1172903D2*
X1564513D1*
X2002833D2*
X3414505D1*
X3772892D2*
X4352715D1*
X434694Y542159D2*
X3439372D1*
X3748024D2*
X4352715D1*
X434694Y517290D2*
X3464240D1*
X3723157D2*
X4352715D1*
X434694Y492421D2*
X4352715D1*
X434694Y467552D2*
X3220353D1*
X434694Y442684D2*
X1230844D1*
X481444Y1946004D2*
X518513D1*
X515397Y1947265D1*
X512613Y1948543D1*
X509886Y1949940D1*
X507221Y1951453D1*
X504624Y1953079D1*
X502100Y1954815D1*
X499653Y1956658D1*
X497287Y1958605D1*
X495007Y1960652D1*
X492817Y1962795D1*
X490721Y1965030D1*
X488724Y1967354D1*
X486828Y1969761D1*
X485038Y1972247D1*
X483356Y1974808D1*
X481786Y1977439D1*
X481438Y1978085D1*
X481437Y1946009D1*
X614902Y1805964D2*
Y1803602D1*
X487163D1*
X955960Y1334808D1*
X955964Y1486283D1*
X936280Y1486279D1*
Y1601122D1*
X997758D1*
X1155966Y1759333D1*
X1155964Y1878069D1*
X1117017Y1917017D1*
X1111372Y1924236D1*
X1107633Y1932602D1*
X1106022Y1941632D1*
X1105964Y1952792D1*
Y2092839D1*
X1099796Y2098065D1*
X1093709Y2104843D1*
X1092095Y2102856D1*
X1090065Y2100566D1*
X1087927Y2098376D1*
X1085685Y2096292D1*
X1083346Y2094319D1*
X1080914Y2092461D1*
X1078395Y2090723D1*
X1075795Y2089109D1*
X1073120Y2087622D1*
X1070376Y2086266D1*
X1067570Y2085045D1*
X1064708Y2083960D1*
X1061797Y2083015D1*
X1058844Y2082211D1*
X1055856Y2081552D1*
X1052839Y2081037D1*
X1049801Y2080669D1*
X1046748Y2080447D1*
X1043689Y2080374D1*
X1040629Y2080449D1*
X1037577Y2080671D1*
X1034539Y2081040D1*
X1031522Y2081556D1*
X1028534Y2082217D1*
X1025581Y2083022D1*
X1022671Y2083968D1*
X1019810Y2085054D1*
X1017004Y2086276D1*
X1014261Y2087633D1*
X1011586Y2089121D1*
X1008987Y2090736D1*
X1007027Y2092090D1*
X1007028Y2080374D1*
X981433D1*
X981437Y1909339D1*
X989645Y1901124D1*
X1051122Y1901122D1*
Y1882220D1*
X1051512Y1882654D1*
X1053645Y1884844D1*
X1055892Y1886917D1*
X1058245Y1888868D1*
X1060700Y1890691D1*
X1063247Y1892381D1*
X1065881Y1893933D1*
X1068594Y1895342D1*
X1071378Y1896605D1*
X1074226Y1897719D1*
X1077128Y1898678D1*
X1080078Y1899483D1*
X1083066Y1900129D1*
X1086084Y1900615D1*
X1089124Y1900939D1*
X1092177Y1901102D1*
X1095234D1*
X1098287Y1900939D1*
X1101327Y1900613D1*
X1104345Y1900127D1*
X1107333Y1899480D1*
X1110282Y1898676D1*
X1113185Y1897715D1*
X1116032Y1896602D1*
X1118816Y1895338D1*
X1121528Y1893929D1*
X1124162Y1892376D1*
X1126710Y1890686D1*
X1129163Y1888863D1*
X1131517Y1886911D1*
X1133763Y1884837D1*
X1135896Y1882647D1*
X1137909Y1880346D1*
X1139796Y1877941D1*
X1141553Y1875439D1*
X1143175Y1872848D1*
X1144656Y1870173D1*
X1145992Y1867424D1*
X1147181Y1864607D1*
X1148218Y1861731D1*
X1149100Y1858804D1*
X1149825Y1855834D1*
X1150392Y1852830D1*
X1150797Y1849800D1*
X1151041Y1846752D1*
X1151122Y1843701D1*
X1151040Y1840640D1*
X1150796Y1837593D1*
X1150390Y1834563D1*
X1149824Y1831558D1*
X1149098Y1828589D1*
X1148215Y1825662D1*
X1147178Y1822786D1*
X1145989Y1819969D1*
X1144652Y1817220D1*
X1143170Y1814546D1*
X1141548Y1811954D1*
X1139791Y1809453D1*
X1137903Y1807048D1*
X1135889Y1804748D1*
X1133756Y1802558D1*
X1131510Y1800484D1*
X1129156Y1798533D1*
X1126702Y1796710D1*
X1124154Y1795020D1*
X1121520Y1793469D1*
X1118807Y1792059D1*
X1116023Y1790796D1*
X1113176Y1789683D1*
X1110273Y1788723D1*
X1107324Y1787919D1*
X1104336Y1787273D1*
X1101318Y1786787D1*
X1098278Y1786462D1*
X1095225Y1786300D1*
X1092168D1*
X1089115Y1786463D1*
X1086075Y1786788D1*
X1083057Y1787275D1*
X1080069Y1787921D1*
X1077119Y1788726D1*
X1074217Y1789686D1*
X1071370Y1790800D1*
X1068586Y1792063D1*
X1065873Y1793473D1*
X1063239Y1795025D1*
X1060692Y1796715D1*
X1058238Y1798539D1*
X1055885Y1800490D1*
X1053639Y1802564D1*
X1051506Y1804755D1*
X1051123Y1805193D1*
X1051122Y1786279D1*
X936280D1*
Y1805971D1*
X736563Y1805965D1*
X614906D1*
X1607421Y641309D2*
Y633355D1*
X1609335Y631434D1*
X1630154Y631437D1*
X1628794Y631749D1*
X1627014Y632204D1*
X1625248Y632711D1*
X1623497Y633268D1*
X1621763Y633876D1*
X1620048Y634533D1*
X1618352Y635239D1*
X1616677Y635995D1*
X1615025Y636798D1*
X1613396Y637648D1*
X1611793Y638545D1*
X1607420Y641510D1*
X1496306Y1740641D2*
X1496032Y1737594D1*
X1495576Y1734570D1*
X1494939Y1731578D1*
X1494126Y1728629D1*
X1493137Y1725735D1*
X1491977Y1722905D1*
X1490649Y1720149D1*
X1489160Y1717478D1*
X1487513Y1714900D1*
X1485715Y1712426D1*
X1483772Y1710063D1*
X1481692Y1707821D1*
X1479481Y1705708D1*
X1477147Y1703730D1*
X1474700Y1701896D1*
X1472147Y1700211D1*
X1469498Y1698682D1*
X1466762Y1697314D1*
X1463950Y1696112D1*
X1461070Y1695080D1*
X1458134Y1694222D1*
X1455152Y1693542D1*
X1452135Y1693041D1*
X1449093Y1692721D1*
X1446037Y1692584D1*
X1442979Y1692630D1*
X1439929Y1692859D1*
X1436898Y1693270D1*
X1433897Y1693861D1*
X1430937Y1694631D1*
X1428028Y1695576D1*
X1425181Y1696694D1*
X1422405Y1697980D1*
X1419712Y1699429D1*
X1417110Y1701037D1*
X1414609Y1702798D1*
X1412218Y1704705D1*
X1409945Y1706752D1*
X1407798Y1708931D1*
X1405786Y1711235D1*
X1403915Y1713654D1*
X1402192Y1716182D1*
X1400624Y1718808D1*
X1399215Y1721522D1*
X1397971Y1724317D1*
X1396896Y1727180D1*
X1395995Y1730103D1*
X1395270Y1733075D1*
X1394724Y1736084D1*
X1394359Y1739121D1*
X1394176Y1742174D1*
X1394177Y1745233D1*
X1394360Y1748286D1*
X1394725Y1751323D1*
X1395271Y1754333D1*
X1395997Y1757304D1*
X1396898Y1760227D1*
X1397973Y1763090D1*
X1399218Y1765884D1*
X1400627Y1768599D1*
X1402196Y1771225D1*
X1403919Y1773752D1*
X1405790Y1776172D1*
X1407803Y1778475D1*
X1409949Y1780654D1*
X1412222Y1782700D1*
X1414614Y1784607D1*
X1417115Y1786368D1*
X1419717Y1787975D1*
X1422411Y1789425D1*
X1425186Y1790710D1*
X1428033Y1791827D1*
X1430942Y1792772D1*
X1433903Y1793542D1*
X1436904Y1794133D1*
X1439935Y1794543D1*
X1442985Y1794771D1*
X1446043Y1794817D1*
X1449099Y1794680D1*
X1452141Y1794360D1*
X1455158Y1793859D1*
X1458140Y1793178D1*
X1461076Y1792320D1*
X1463955Y1791288D1*
X1466768Y1790086D1*
X1469503Y1788717D1*
X1472152Y1787188D1*
X1474705Y1785503D1*
X1477152Y1783668D1*
X1479485Y1781690D1*
X1481696Y1779576D1*
X1483776Y1777334D1*
X1485719Y1774971D1*
X1487516Y1772496D1*
X1489163Y1769919D1*
X1490652Y1767247D1*
X1491979Y1764491D1*
X1493139Y1761661D1*
X1494127Y1758766D1*
X1494941Y1755818D1*
X1495577Y1752826D1*
X1496032Y1749802D1*
X1496306Y1746755D1*
X1496398Y1743701D1*
X1496306Y1740641D1*
X3107421Y2654057D2*
Y2646091D1*
X3108501Y2646817D1*
X3111089Y2648443D1*
X3113751Y2649944D1*
X3116482Y2651315D1*
X3119275Y2652554D1*
X3122125Y2653657D1*
X3125024Y2654623D1*
X3127967Y2655448D1*
X3130945Y2656132D1*
X3133953Y2656671D1*
X3136984Y2657066D1*
X3140029Y2657315D1*
X3143084Y2657418D1*
X3146139Y2657375D1*
X3149189Y2657184D1*
X3152227Y2656848D1*
X3155245Y2656367D1*
X3158236Y2655741D1*
X3161194Y2654973D1*
X3164111Y2654064D1*
X3166982Y2653016D1*
X3169799Y2651832D1*
X3172556Y2650513D1*
X3175247Y2649065D1*
X3177865Y2647489D1*
X3180404Y2645789D1*
X3182859Y2643969D1*
X3185225Y2642034D1*
X3187494Y2639987D1*
X3189663Y2637834D1*
X3191726Y2635580D1*
X3193702Y2633198D1*
X3195601Y2635495D1*
X3202039Y2641914D1*
X3205959Y2644841D1*
X3205964Y2665945D1*
X3207077Y2675041D1*
X3210349Y2683600D1*
X3215595Y2691125D1*
X3223497Y2699108D1*
X3280354Y2755965D1*
X3209332Y2755964D1*
X3107418Y2654051D1*
X3293607Y2554314D2*
X3291800Y2551907D1*
X3285363Y2545487D1*
X3281414Y2542540D1*
X3280324Y2534605D1*
X3277052Y2526045D1*
X3271806Y2518521D1*
X3264134Y2510767D1*
X3120384Y2367017D1*
X3113166Y2361372D1*
X3104799Y2357634D1*
X3095770Y2356022D1*
X3084554Y2355965D1*
X2359326D1*
X2350984Y2347617D1*
X2351122Y2343701D1*
X2350389Y2334554D1*
X2348187Y2325579D1*
X2344575Y2317073D1*
X2339645Y2309257D1*
X2333524Y2302333D1*
X2326373Y2296481D1*
X2321757Y2293809D1*
X2328868Y2289093D1*
X2335694Y2282864D1*
X2336820Y2281443D1*
X2541725Y2281437D1*
X3122556D1*
X3355971Y2514850D1*
X3355958Y2528077D1*
X3353324Y2530711D1*
X3352683Y2530617D1*
X3343614Y2529980D1*
X3334546Y2530641D1*
X3325665Y2532586D1*
X3317151Y2535775D1*
X3309178Y2540143D1*
X3301907Y2545601D1*
X3295487Y2552039D1*
X3293793Y2554308D1*
X3560796Y757422D2*
X3604054D1*
X4155966Y1309334D1*
X4155964Y1430154D1*
X4154816Y1425665D1*
X4151627Y1417151D1*
X4150837Y1415492D1*
X4150000Y1413857D1*
X4149116Y1412246D1*
X4144076Y1404680D1*
X4138010Y1397908D1*
X4131443Y1392405D1*
X4131437Y1343701D1*
X4130324Y1334605D1*
X4127052Y1326045D1*
X4121807Y1318521D1*
X4113863Y1310495D1*
X3560793Y757426D1*
X3657421Y704053D2*
Y629981D1*
X3529980D1*
Y641311D1*
X3528077Y640046D1*
X3520092Y635699D1*
X3511569Y632534D1*
X3502683Y630613D1*
X3493613Y629977D1*
X3484546Y630638D1*
X3475665Y632583D1*
X3467151Y635772D1*
X3459177Y640140D1*
X3451907Y645598D1*
X3445487Y652035D1*
X3443793Y654305D1*
X3441800Y651900D1*
X3440335Y650439D1*
X3509334Y581434D1*
X3678077Y581437D1*
X3887898Y791265D1*
X4255966Y1159333D1*
X4255964Y1728078D1*
X4178067Y1805967D1*
X4157422Y1805964D1*
X4157421Y1679980D1*
X4154087D1*
X4156314Y1679267D1*
X4158030Y1678611D1*
X4159712Y1677872D1*
X4161356Y1677052D1*
X4168880Y1671807D1*
X4176634Y1664134D1*
X4220384Y1620384D1*
X4226029Y1613166D1*
X4229768Y1604800D1*
X4231379Y1595770D1*
X4231437Y1585367D1*
Y1293702D1*
X4230325Y1284606D1*
X4227052Y1276046D1*
X4221807Y1268522D1*
X4213863Y1260496D1*
X3657418Y704052D1*
X2294534Y740641D2*
X2294256Y737577D1*
X2293794Y734536D1*
X2293150Y731528D1*
X2292324Y728564D1*
X2291322Y725656D1*
X2290145Y722814D1*
X2288800Y720048D1*
X2287289Y717368D1*
X2285620Y714784D1*
X2283797Y712306D1*
X2281828Y709942D1*
X2279721Y707702D1*
X2277481Y705592D1*
X2275119Y703622D1*
X2272642Y701798D1*
X2270059Y700127D1*
X2267380Y698616D1*
X2264614Y697268D1*
X2261773Y696090D1*
X2258865Y695086D1*
X2255902Y694259D1*
X2252895Y693612D1*
X2249854Y693149D1*
X2246790Y692869D1*
X2243715Y692776D1*
X2240641Y692868D1*
X2237577Y693145D1*
X2234536Y693607D1*
X2231528Y694252D1*
X2228564Y695077D1*
X2225656Y696080D1*
X2222814Y697256D1*
X2220048Y698602D1*
X2217368Y700112D1*
X2214784Y701782D1*
X2212306Y703604D1*
X2209942Y705573D1*
X2207702Y707681D1*
X2205592Y709920D1*
X2203622Y712283D1*
X2201798Y714760D1*
X2200127Y717343D1*
X2198616Y720022D1*
X2197268Y722787D1*
X2196090Y725629D1*
X2195086Y728537D1*
X2194259Y731499D1*
X2193612Y734507D1*
X2193149Y737548D1*
X2192869Y740611D1*
X2192776Y743686D1*
X2192868Y746761D1*
X2193145Y749825D1*
X2193607Y752866D1*
X2194252Y755874D1*
X2195077Y758837D1*
X2196080Y761746D1*
X2197256Y764588D1*
X2198602Y767354D1*
X2200112Y770034D1*
X2201782Y772618D1*
X2203604Y775096D1*
X2205573Y777460D1*
X2207681Y779700D1*
X2209920Y781809D1*
X2212283Y783779D1*
X2214760Y785603D1*
X2217343Y787274D1*
X2220022Y788786D1*
X2222787Y790133D1*
X2225629Y791312D1*
X2228537Y792316D1*
X2231499Y793143D1*
X2234507Y793789D1*
X2237548Y794253D1*
X2240611Y794532D1*
X2243686Y794626D1*
X2246761Y794534D1*
X2249825Y794256D1*
X2252866Y793794D1*
X2255874Y793150D1*
X2258837Y792324D1*
X2261746Y791322D1*
X2264588Y790145D1*
X2267354Y788800D1*
X2270034Y787289D1*
X2272618Y785620D1*
X2275096Y783797D1*
X2277460Y781828D1*
X2279700Y779721D1*
X2281809Y777481D1*
X2283779Y775119D1*
X2285603Y772642D1*
X2287274Y770059D1*
X2288786Y767380D1*
X2290133Y764614D1*
X2291312Y761773D1*
X2292316Y758865D1*
X2293143Y755902D1*
X2293789Y752895D1*
X2294253Y749854D1*
X2294532Y746790D1*
X2294626Y743701D1*
X2294534Y740641D1*
X4041315Y1679980D2*
X4031436D1*
X4031437Y1659332D1*
X4031828Y1658940D1*
X4032181Y1660304D1*
X4032686Y1662070D1*
X4033240Y1663822D1*
X4033846Y1665556D1*
X4034501Y1667273D1*
X4035205Y1668970D1*
X4035958Y1670646D1*
X4036758Y1672299D1*
X4037607Y1673929D1*
X4038501Y1675533D1*
X4041510Y1679983D1*
X4136953Y1597073D2*
X4135363Y1595487D1*
X4133093Y1593793D1*
X4138817Y1588699D1*
X4144761Y1581821D1*
X4149667Y1574166D1*
X4150522Y1572540D1*
X4151329Y1570890D1*
X4152089Y1569217D1*
X4152801Y1567523D1*
X4153463Y1565809D1*
X4154075Y1564077D1*
X4154638Y1562328D1*
X4155149Y1560564D1*
X4155610Y1558785D1*
X4155964Y1557234D1*
Y1578064D1*
X4137049Y1596985D1*
X4155964Y1530908D2*
X4154915Y1526120D1*
X4155965Y1526122D1*
X4155964Y1530908D1*
X4154943Y1461279D2*
X4155548Y1459039D1*
X4155965Y1457248D1*
X4155964Y1461284D1*
X4154942Y1461279D1*
X975059Y2452057D2*
X974823Y2449008D1*
X974430Y2445975D1*
X973881Y2442966D1*
X973179Y2439990D1*
X972324Y2437054D1*
X971319Y2434165D1*
X970166Y2431332D1*
X968870Y2428562D1*
X967432Y2425863D1*
X965858Y2423241D1*
X964150Y2420704D1*
X962315Y2418258D1*
X960355Y2415909D1*
X958278Y2413665D1*
X956087Y2411530D1*
X953790Y2409512D1*
X951392Y2407614D1*
X948899Y2405842D1*
X946318Y2404201D1*
X943657Y2402694D1*
X940921Y2401327D1*
X938119Y2400103D1*
X935257Y2399024D1*
X932343Y2398094D1*
X929386Y2397315D1*
X926392Y2396690D1*
X923370Y2396219D1*
X920328Y2395905D1*
X917274Y2395748D1*
X914215D1*
X911161Y2395906D1*
X908119Y2396220D1*
X905097Y2396691D1*
X902104Y2397317D1*
X899146Y2398096D1*
X896233Y2399026D1*
X893371Y2400105D1*
X890569Y2401330D1*
X887833Y2402698D1*
X885172Y2404204D1*
X882591Y2405846D1*
X880099Y2407618D1*
X877701Y2409516D1*
X875404Y2411535D1*
X873214Y2413670D1*
X871136Y2415914D1*
X869177Y2418263D1*
X867342Y2420709D1*
X865635Y2423247D1*
X864060Y2425869D1*
X862623Y2428568D1*
X861327Y2431338D1*
X860175Y2434171D1*
X859170Y2437060D1*
X858316Y2439997D1*
X857613Y2442973D1*
X857065Y2445982D1*
X856673Y2449015D1*
X856437Y2452064D1*
X856358Y2455122D1*
X856437Y2458179D1*
X856673Y2461228D1*
X857066Y2464261D1*
X857615Y2467270D1*
X858317Y2470246D1*
X859172Y2473183D1*
X860177Y2476071D1*
X861330Y2478904D1*
X862626Y2481674D1*
X864064Y2484373D1*
X865638Y2486995D1*
X867346Y2489533D1*
X869181Y2491979D1*
X871141Y2494327D1*
X873218Y2496571D1*
X875409Y2498706D1*
X877706Y2500725D1*
X880104Y2502622D1*
X882597Y2504394D1*
X885178Y2506036D1*
X887839Y2507542D1*
X890575Y2508909D1*
X893377Y2510134D1*
X896239Y2511212D1*
X899153Y2512142D1*
X902110Y2512921D1*
X905104Y2513546D1*
X908126Y2514017D1*
X911168Y2514331D1*
X914222Y2514488D1*
X917281D1*
X920335Y2514330D1*
X923377Y2514016D1*
X926399Y2513545D1*
X929392Y2512919D1*
X932350Y2512140D1*
X935263Y2511210D1*
X938125Y2510131D1*
X940927Y2508906D1*
X943663Y2507539D1*
X946324Y2506032D1*
X948905Y2504391D1*
X951397Y2502618D1*
X953795Y2500720D1*
X956092Y2498701D1*
X958283Y2496566D1*
X960360Y2494322D1*
X962319Y2491973D1*
X964154Y2489527D1*
X965862Y2486989D1*
X967436Y2484367D1*
X968873Y2481668D1*
X970169Y2478898D1*
X971321Y2476065D1*
X972326Y2473176D1*
X973180Y2470240D1*
X973883Y2467263D1*
X974431Y2464254D1*
X974823Y2461221D1*
X975059Y2458172D1*
X975138Y2455118D1*
X975059Y2452057D1*
X2319176Y2422380D2*
X2326820Y2427451D1*
X2335452Y2430524D1*
X2343701Y2431437D1*
X3078076D1*
X3197073Y2550448D1*
X3195487Y2552039D1*
X3193793Y2554308D1*
X3193689Y2554214D1*
X3192590Y2552834D1*
X3190575Y2550537D1*
X3188451Y2548339D1*
X3186225Y2546246D1*
X3183901Y2544262D1*
X3181484Y2542391D1*
X3178981Y2540638D1*
X3176396Y2539008D1*
X3173736Y2537503D1*
X3171008Y2536128D1*
X3168216Y2534885D1*
X3165368Y2533777D1*
X3162470Y2532807D1*
X3159529Y2531977D1*
X3156551Y2531290D1*
X3153544Y2530745D1*
X3150514Y2530346D1*
X3147469Y2530092D1*
X3144415Y2529984D1*
X3141359Y2530023D1*
X3138309Y2530209D1*
X3135271Y2530540D1*
X3132252Y2531017D1*
X3129260Y2531638D1*
X3126301Y2532402D1*
X3123382Y2533307D1*
X3120510Y2534350D1*
X3117691Y2535530D1*
X3114932Y2536844D1*
X3112239Y2538289D1*
X3109619Y2539861D1*
X3107421Y2541309D1*
Y2529980D1*
X2979981D1*
Y2605956D1*
X2942627Y2605965D1*
X2359338D1*
X2160560Y2407193D1*
X2160563Y1680211D1*
X2254811Y1585958D1*
X2257135Y1587974D1*
X2264711Y1593267D1*
X2265532Y1593662D1*
X2265270Y1593812D1*
X2257636Y1599018D1*
X2250935Y1605382D1*
X2245342Y1612738D1*
X2241002Y1620897D1*
X2238026Y1629645D1*
X2236493Y1638758D1*
X2236441Y1647999D1*
X2237872Y1657129D1*
X2240749Y1665910D1*
X2244997Y1674117D1*
X2250507Y1681536D1*
X2257135Y1687974D1*
X2264711Y1693267D1*
X2265532Y1693662D1*
X2263193Y1695054D1*
X2260647Y1696747D1*
X2258195Y1698573D1*
X2255843Y1700527D1*
X2253599Y1702603D1*
X2251469Y1704795D1*
X2249458Y1707098D1*
X2247573Y1709505D1*
X2245818Y1712008D1*
X2244199Y1714601D1*
X2242720Y1717277D1*
X2241386Y1720028D1*
X2240201Y1722846D1*
X2239166Y1725723D1*
X2238287Y1728651D1*
X2237564Y1731621D1*
X2237001Y1734626D1*
X2236599Y1737657D1*
X2236358Y1740704D1*
X2236280Y1743760D1*
X2236364Y1746816D1*
X2236611Y1749864D1*
X2237020Y1752893D1*
X2237590Y1755897D1*
X2238318Y1758866D1*
X2239204Y1761792D1*
X2240244Y1764667D1*
X2241436Y1767482D1*
X2242775Y1770230D1*
X2244260Y1772903D1*
X2245884Y1775493D1*
X2247644Y1777993D1*
X2249534Y1780395D1*
X2251550Y1782694D1*
X2253685Y1784882D1*
X2255933Y1786954D1*
X2258289Y1788902D1*
X2260745Y1790723D1*
X2263294Y1792410D1*
X2265479Y1793695D1*
X2265046Y1793940D1*
X2257435Y1799181D1*
X2250763Y1805575D1*
X2245203Y1812956D1*
X2240900Y1821134D1*
X2237964Y1829896D1*
X2236471Y1839016D1*
X2236461Y1848257D1*
X2237933Y1857380D1*
X2240849Y1866149D1*
X2245134Y1874336D1*
X2250678Y1881730D1*
X2257335Y1888139D1*
X2264934Y1893397D1*
X2265513Y1893672D1*
X2265270Y1893812D1*
X2257636Y1899018D1*
X2250935Y1905382D1*
X2245342Y1912738D1*
X2241002Y1920897D1*
X2238026Y1929645D1*
X2236493Y1938758D1*
X2236441Y1947999D1*
X2237872Y1957129D1*
X2240749Y1965910D1*
X2244997Y1974117D1*
X2250507Y1981536D1*
X2257135Y1987974D1*
X2264711Y1993267D1*
X2265532Y1993662D1*
X2265270Y1993812D1*
X2257636Y1999018D1*
X2250935Y2005382D1*
X2245342Y2012738D1*
X2241002Y2020897D1*
X2238026Y2029645D1*
X2236493Y2038758D1*
X2236441Y2047999D1*
X2237872Y2057129D1*
X2240749Y2065910D1*
X2244997Y2074117D1*
X2250507Y2081536D1*
X2257135Y2087974D1*
X2264711Y2093267D1*
X2265532Y2093662D1*
X2265270Y2093812D1*
X2257636Y2099018D1*
X2250935Y2105382D1*
X2245342Y2112738D1*
X2241002Y2120897D1*
X2238026Y2129645D1*
X2236493Y2138758D1*
X2236441Y2147999D1*
X2237872Y2157129D1*
X2240749Y2165910D1*
X2244997Y2174117D1*
X2250507Y2181536D1*
X2257135Y2187974D1*
X2264711Y2193267D1*
X2265532Y2193662D1*
X2265270Y2193812D1*
X2257636Y2199018D1*
X2250935Y2205382D1*
X2245342Y2212738D1*
X2241002Y2220897D1*
X2238026Y2229645D1*
X2236493Y2238758D1*
X2236441Y2247999D1*
X2237872Y2257129D1*
X2240749Y2265910D1*
X2244997Y2274117D1*
X2250507Y2281536D1*
X2257135Y2287974D1*
X2264711Y2293267D1*
X2265532Y2293662D1*
X2265270Y2293812D1*
X2257636Y2299018D1*
X2250935Y2305382D1*
X2245342Y2312738D1*
X2241002Y2320897D1*
X2238026Y2329645D1*
X2236493Y2338758D1*
X2236441Y2347999D1*
X2237872Y2357129D1*
X2240749Y2365910D1*
X2244997Y2374117D1*
X2250507Y2381536D1*
X2257135Y2387974D1*
X2264711Y2393267D1*
X2273037Y2397275D1*
X2281899Y2399896D1*
X2291066Y2401062D1*
X2297478Y2400839D1*
X2317003Y2420370D1*
X2319176Y2422380D1*
X3959329Y1481437D2*
X4002605D1*
X3917017Y1567017D1*
X3911372Y1574236D1*
X3907633Y1582602D1*
X3906022Y1591632D1*
X3905964Y1602847D1*
Y2328076D1*
X3478071Y2755964D1*
X3457040D1*
X3643982Y2569031D1*
X3870384Y2342628D1*
X3876029Y2335410D1*
X3879768Y2327044D1*
X3881379Y2318014D1*
X3881437Y2306751D1*
Y1559329D1*
X3959334Y1481434D1*
X3940763Y1406080D2*
X3931773Y1407899D1*
X3923495Y1411830D1*
X3917017Y1417017D1*
X3817031Y1517003D1*
X3815015Y1519182D1*
X3809951Y1526819D1*
X3806877Y1535452D1*
X3805965Y1543701D1*
Y2300317D1*
X3400309Y2705969D1*
X3337087Y2705964D1*
X3281442Y2650319D1*
X3281440Y2644844D1*
X3285495Y2641800D1*
X3291914Y2635363D1*
X3293609Y2633093D1*
X3299769Y2639856D1*
X3306784Y2645638D1*
X3314552Y2650363D1*
X3322912Y2653935D1*
X3331696Y2656280D1*
X3340724Y2657352D1*
X3349813Y2657127D1*
X3358777Y2655612D1*
X3367435Y2652836D1*
X3375609Y2648857D1*
X3383134Y2643754D1*
X3389856Y2637633D1*
X3395638Y2630617D1*
X3400363Y2622850D1*
X3403935Y2614489D1*
X3406280Y2605706D1*
X3407352Y2596678D1*
X3407421Y2593701D1*
X3406760Y2584546D1*
X3406663Y2584104D1*
X3770384Y2220384D1*
X3776029Y2213166D1*
X3779768Y2204800D1*
X3781379Y2195770D1*
X3781437Y2184490D1*
Y1143701D1*
X3780324Y1134605D1*
X3777052Y1126045D1*
X3771806Y1118521D1*
X3763903Y1110536D1*
X3431434Y778067D1*
X3431437Y745042D1*
X3437119Y740332D1*
X3443315Y733678D1*
X3443674Y733160D1*
X3449768Y739852D1*
X3455982Y744974D1*
X3456079Y746647D1*
X3457899Y755628D1*
X3461829Y763906D1*
X3467017Y770384D1*
X4055966Y1359333D1*
X4055964Y1392359D1*
X4050282Y1397063D1*
X4044087Y1403717D1*
X4042522Y1405970D1*
X3943726Y1405965D1*
X3940763Y1406080D1*
X769176Y2772380D2*
X776819Y2777451D1*
X785452Y2780525D1*
X793701Y2781437D1*
X1726660D1*
X1729632Y2781322D1*
X1738613Y2779502D1*
X1746891Y2775572D1*
X1753369Y2770384D1*
X1842338Y2681415D1*
X1843733Y2681437D1*
X3028063D1*
X3151843Y2805211D1*
X2916278Y2805216D1*
X432186D1*
X432185Y2335549D1*
X460299Y2363677D1*
X457212Y2371318D1*
X454905Y2380146D1*
X453745Y2389195D1*
X453752Y2398319D1*
X454926Y2407367D1*
X457247Y2416190D1*
X460678Y2424644D1*
X465161Y2432591D1*
X470624Y2439898D1*
X476977Y2446447D1*
X484114Y2452130D1*
X487064Y2453915D1*
X487067Y2474778D1*
X487182Y2477750D1*
X489002Y2486731D1*
X492932Y2495009D1*
X498120Y2501487D1*
X766999Y2770366D1*
X769176Y2772380D1*
X1705963Y1325732D2*
Y1393675D1*
X1706078Y1396646D1*
X1707898Y1405627D1*
X1711829Y1413905D1*
X1717016Y1420383D1*
X1867002Y1570369D1*
X1869182Y1572386D1*
X1876820Y1577451D1*
X1885452Y1580524D1*
X1893701Y1581437D1*
X1950437Y1581441D1*
X1950507Y1581536D1*
X1957135Y1587974D1*
X1964711Y1593267D1*
X1965532Y1593662D1*
X1963193Y1595054D1*
X1960647Y1596747D1*
X1958195Y1598573D1*
X1955843Y1600527D1*
X1953599Y1602603D1*
X1951469Y1604795D1*
X1949458Y1607098D1*
X1947573Y1609505D1*
X1945818Y1612008D1*
X1944199Y1614601D1*
X1942720Y1617277D1*
X1941386Y1620028D1*
X1940201Y1622846D1*
X1939166Y1625723D1*
X1938287Y1628651D1*
X1937564Y1631621D1*
X1937001Y1634626D1*
X1936599Y1637657D1*
X1936358Y1640704D1*
X1936280Y1643760D1*
X1936364Y1646816D1*
X1936611Y1649864D1*
X1937020Y1652893D1*
X1937590Y1655897D1*
X1938318Y1658866D1*
X1939204Y1661792D1*
X1940244Y1664667D1*
X1941436Y1667482D1*
X1942775Y1670230D1*
X1944260Y1672903D1*
X1945884Y1675493D1*
X1947644Y1677993D1*
X1949534Y1680395D1*
X1951550Y1682694D1*
X1953685Y1684882D1*
X1955933Y1686954D1*
X1958289Y1688902D1*
X1960745Y1690723D1*
X1963294Y1692410D1*
X1965511Y1693720D1*
X1965046Y1693940D1*
X1957435Y1699181D1*
X1950763Y1705575D1*
X1945203Y1712956D1*
X1940900Y1721134D1*
X1937964Y1729896D1*
X1936471Y1739016D1*
X1936461Y1748257D1*
X1937933Y1757380D1*
X1940849Y1766149D1*
X1945134Y1774336D1*
X1950678Y1781730D1*
X1957335Y1788139D1*
X1964934Y1793397D1*
X1965513Y1793672D1*
X1965491Y1793709D1*
X1965270Y1793812D1*
X1957636Y1799018D1*
X1950935Y1805382D1*
X1945342Y1812738D1*
X1941002Y1820897D1*
X1938026Y1829645D1*
X1936493Y1838758D1*
X1936441Y1847999D1*
X1937872Y1857129D1*
X1940749Y1865910D1*
X1944997Y1874117D1*
X1950507Y1881536D1*
X1957135Y1887974D1*
X1964711Y1893267D1*
X1965532Y1893662D1*
X1965491Y1893709D1*
X1965270Y1893812D1*
X1957636Y1899018D1*
X1950935Y1905382D1*
X1945342Y1912738D1*
X1941002Y1920897D1*
X1938026Y1929645D1*
X1936493Y1938758D1*
X1936441Y1947999D1*
X1937872Y1957129D1*
X1940749Y1965910D1*
X1944997Y1974117D1*
X1950507Y1981536D1*
X1957135Y1987974D1*
X1964711Y1993267D1*
X1965532Y1993662D1*
X1965491Y1993709D1*
X1965270Y1993812D1*
X1957636Y1999018D1*
X1954135Y2002343D1*
X1693025Y1741229D1*
X1692425Y1734564D1*
X1689985Y1725729D1*
X1686007Y1717473D1*
X1680619Y1710059D1*
X1673993Y1703726D1*
X1666343Y1698679D1*
X1657915Y1695078D1*
X1648979Y1693040D1*
X1639823Y1692631D1*
X1630742Y1693862D1*
X1622026Y1696696D1*
X1613956Y1701041D1*
X1606791Y1706756D1*
X1600762Y1713659D1*
X1596063Y1721528D1*
X1592844Y1730109D1*
X1591209Y1739127D1*
X1591211Y1748292D1*
X1592849Y1757310D1*
X1596070Y1765890D1*
X1600773Y1773757D1*
X1606804Y1780658D1*
X1613970Y1786371D1*
X1622042Y1790712D1*
X1630759Y1793543D1*
X1639832Y1794771D1*
X1915442Y2070384D1*
X1922661Y2076029D1*
X1931027Y2079768D1*
X1940057Y2081379D1*
X1942147Y2081437D1*
X1950437Y2081441D1*
X1950507Y2081536D1*
X1957135Y2087974D1*
X1964711Y2093267D1*
X1965532Y2093662D1*
X1965491Y2093709D1*
X1965270Y2093812D1*
X1957636Y2099018D1*
X1950935Y2105382D1*
X1945342Y2112738D1*
X1941002Y2120897D1*
X1938026Y2129645D1*
X1936493Y2138758D1*
X1936441Y2147999D1*
X1937872Y2157129D1*
X1940749Y2165910D1*
X1944997Y2174117D1*
X1950507Y2181536D1*
X1957135Y2187974D1*
X1964711Y2193267D1*
X1965532Y2193662D1*
X1965491Y2193709D1*
X1965270Y2193812D1*
X1957636Y2199018D1*
X1950935Y2205382D1*
X1945342Y2212738D1*
X1941002Y2220897D1*
X1938026Y2229645D1*
X1936493Y2238758D1*
X1936441Y2247999D1*
X1937872Y2257129D1*
X1940749Y2265910D1*
X1944997Y2274117D1*
X1950507Y2281536D1*
X1955394Y2286283D1*
X1936280Y2286279D1*
Y2305971D1*
X1859332Y2305964D1*
X1801122Y2247753D1*
Y2186279D1*
X1782199Y2186281D1*
X1783763Y2184837D1*
X1785896Y2182647D1*
X1787909Y2180346D1*
X1789796Y2177941D1*
X1791553Y2175439D1*
X1793175Y2172848D1*
X1794656Y2170173D1*
X1795992Y2167424D1*
X1797181Y2164607D1*
X1798218Y2161731D1*
X1799100Y2158804D1*
X1799825Y2155834D1*
X1800392Y2152830D1*
X1800797Y2149800D1*
X1801041Y2146752D1*
X1801122Y2143701D1*
X1801040Y2140640D1*
X1800796Y2137593D1*
X1800390Y2134563D1*
X1799824Y2131558D1*
X1799098Y2128589D1*
X1798215Y2125662D1*
X1797178Y2122786D1*
X1795989Y2119969D1*
X1794652Y2117220D1*
X1793170Y2114546D1*
X1791548Y2111954D1*
X1789791Y2109453D1*
X1787903Y2107048D1*
X1785889Y2104748D1*
X1783756Y2102558D1*
X1781510Y2100484D1*
X1779156Y2098533D1*
X1776702Y2096710D1*
X1774154Y2095020D1*
X1771520Y2093469D1*
X1768807Y2092059D1*
X1766023Y2090796D1*
X1763176Y2089683D1*
X1760273Y2088723D1*
X1757324Y2087919D1*
X1754336Y2087273D1*
X1751318Y2086787D1*
X1748278Y2086462D1*
X1745225Y2086300D1*
X1742168D1*
X1739115Y2086463D1*
X1736075Y2086788D1*
X1733057Y2087275D1*
X1730069Y2087921D1*
X1727119Y2088726D1*
X1724217Y2089686D1*
X1721370Y2090800D1*
X1718586Y2092063D1*
X1715873Y2093473D1*
X1713239Y2095025D1*
X1710692Y2096715D1*
X1708238Y2098539D1*
X1705885Y2100490D1*
X1703639Y2102564D1*
X1701506Y2104755D1*
X1699493Y2107056D1*
X1697605Y2109460D1*
X1695848Y2111962D1*
X1694227Y2114554D1*
X1692746Y2117228D1*
X1691409Y2119978D1*
X1690221Y2122795D1*
X1689184Y2125670D1*
X1688301Y2128598D1*
X1687576Y2131567D1*
X1687010Y2134572D1*
X1686604Y2137602D1*
X1686361Y2140649D1*
X1686280Y2143705D1*
X1686361Y2146761D1*
X1686605Y2149809D1*
X1687011Y2152839D1*
X1687578Y2155843D1*
X1688304Y2158813D1*
X1689187Y2161740D1*
X1690224Y2164616D1*
X1691413Y2167432D1*
X1692750Y2170181D1*
X1694232Y2172856D1*
X1695853Y2175447D1*
X1697611Y2177949D1*
X1699499Y2180353D1*
X1701512Y2182654D1*
X1703645Y2184844D1*
X1705201Y2186280D1*
X1686280Y2186279D1*
Y2205971D1*
X1486459Y2205965D1*
X1393701D1*
X1384605Y2207077D1*
X1376045Y2210349D1*
X1368521Y2215595D1*
X1360767Y2223267D1*
X1317017Y2267017D1*
X1311372Y2274236D1*
X1307634Y2282602D1*
X1306022Y2291632D1*
X1305965Y2302792D1*
Y2478077D1*
X1278067Y2505968D1*
X1202336Y2505965D1*
X1207725Y2502299D1*
X1214504Y2496240D1*
X1220279Y2489217D1*
X1224914Y2481394D1*
X1228301Y2472956D1*
X1230360Y2464100D1*
X1231043Y2455118D1*
X1230334Y2445968D1*
X1228250Y2437118D1*
X1224839Y2428690D1*
X1220181Y2420881D1*
X1214386Y2413874D1*
X1207590Y2407834D1*
X1199951Y2402903D1*
X1191648Y2399195D1*
X1182877Y2396799D1*
X1173843Y2395769D1*
X1164758Y2396130D1*
X1155834Y2397874D1*
X1147282Y2400960D1*
X1139300Y2405315D1*
X1132077Y2410837D1*
X1125781Y2417397D1*
X1120561Y2424842D1*
X1116538Y2432996D1*
X1113807Y2441669D1*
X1112432Y2450657D1*
X1112445Y2459749D1*
X1113845Y2468733D1*
X1116601Y2477398D1*
X1120647Y2485540D1*
X1125889Y2492970D1*
X1132203Y2499512D1*
X1139443Y2505014D1*
X1141199Y2505966D1*
X1093701Y2505965D1*
X1084605Y2507077D1*
X1076045Y2510349D1*
X1068521Y2515595D1*
X1060690Y2523345D1*
X989484Y2594550D1*
X975144Y2594547D1*
X975138Y2572893D1*
X856359D1*
Y2691673D1*
X975138D1*
Y2670026D1*
X1005118Y2670020D1*
X1014214Y2668907D1*
X1022774Y2665635D1*
X1030298Y2660389D1*
X1038129Y2652640D1*
X1109335Y2581434D1*
X1140963Y2581437D1*
X1139300Y2582480D1*
X1132077Y2588002D1*
X1125781Y2594563D1*
X1120561Y2602007D1*
X1116538Y2610161D1*
X1113807Y2618834D1*
X1112432Y2627822D1*
X1112445Y2636914D1*
X1113845Y2645898D1*
X1116601Y2654563D1*
X1120647Y2662706D1*
X1125889Y2670135D1*
X1132203Y2676678D1*
X1139443Y2682179D1*
X1147437Y2686512D1*
X1155998Y2689573D1*
X1164927Y2691291D1*
X1174013Y2691626D1*
X1183044Y2690571D1*
X1191808Y2688149D1*
X1200100Y2684417D1*
X1207725Y2679464D1*
X1214504Y2673405D1*
X1220279Y2666382D1*
X1224914Y2658560D1*
X1228301Y2650122D1*
X1230360Y2641265D1*
X1231043Y2632283D1*
X1230334Y2623134D1*
X1228250Y2614283D1*
X1224839Y2605855D1*
X1220181Y2598046D1*
X1214386Y2591039D1*
X1207590Y2585000D1*
X1202077Y2581441D1*
X1293680Y2581437D1*
X1296647Y2581322D1*
X1305629Y2579502D1*
X1313906Y2575572D1*
X1320384Y2570384D1*
X1370370Y2520398D1*
X1372386Y2518219D1*
X1377451Y2510582D1*
X1380524Y2501949D1*
X1381437Y2493701D1*
Y2309325D1*
X1409335Y2281434D1*
X1686280Y2281435D1*
Y2301122D1*
X1747758D1*
X1817003Y2370371D1*
X1819182Y2372386D1*
X1826819Y2377451D1*
X1835452Y2380525D1*
X1843701Y2381437D1*
X1936280Y2381435D1*
Y2401122D1*
X1997758D1*
X2005968Y2409335D1*
X2005962Y2509811D1*
X2002475Y2513809D1*
X1997800Y2521651D1*
X1994599Y2530201D1*
X1992977Y2539186D1*
X1992985Y2548315D1*
X1994623Y2557297D1*
X1997838Y2565842D1*
X2002527Y2573675D1*
X2008540Y2580545D1*
X2015683Y2586231D1*
X2023727Y2590551D1*
X2032412Y2593365D1*
X2041460Y2594582D1*
X2050581Y2594165D1*
X2059480Y2592125D1*
X2067872Y2588530D1*
X2075487Y2583494D1*
X2082080Y2577179D1*
X2087440Y2569788D1*
X2091394Y2561559D1*
X2093815Y2552756D1*
X2094626Y2543706D1*
X2093800Y2534570D1*
X2091363Y2525771D1*
X2087395Y2517549D1*
X2082022Y2510167D1*
X2081435Y2509607D1*
X2081437Y2393726D1*
X2081322Y2390754D1*
X2079502Y2381773D1*
X2075572Y2373495D1*
X2070384Y2367017D1*
X2051122Y2347753D1*
Y2286279D1*
X2032220D1*
X2035694Y2282864D1*
X2041432Y2275621D1*
X2045935Y2267551D1*
X2049084Y2258863D1*
X2050799Y2249783D1*
X2051122Y2243701D1*
X2050389Y2234554D1*
X2048187Y2225579D1*
X2044575Y2217073D1*
X2039645Y2209257D1*
X2033524Y2202333D1*
X2026373Y2196481D1*
X2021757Y2193809D1*
X2028868Y2189093D1*
X2035694Y2182864D1*
X2041432Y2175621D1*
X2045935Y2167551D1*
X2049084Y2158863D1*
X2050799Y2149783D1*
X2051122Y2143701D1*
X2050389Y2134554D1*
X2048187Y2125579D1*
X2044575Y2117073D1*
X2039645Y2109257D1*
X2033524Y2102333D1*
X2026373Y2096481D1*
X2021757Y2093809D1*
X2028868Y2089093D1*
X2035694Y2082864D1*
X2041432Y2075621D1*
X2045935Y2067551D1*
X2049084Y2058863D1*
X2050799Y2049783D1*
X2051122Y2043701D1*
X2050389Y2034554D1*
X2048187Y2025579D1*
X2044575Y2017073D1*
X2039645Y2009257D1*
X2033524Y2002333D1*
X2026373Y1996481D1*
X2021757Y1993809D1*
X2028868Y1989093D1*
X2035694Y1982864D1*
X2041432Y1975621D1*
X2045935Y1967551D1*
X2049084Y1958863D1*
X2050799Y1949783D1*
X2051122Y1943701D1*
X2050389Y1934554D1*
X2048187Y1925579D1*
X2044575Y1917073D1*
X2039645Y1909257D1*
X2033524Y1902333D1*
X2026373Y1896481D1*
X2021757Y1893809D1*
X2028868Y1889093D1*
X2035694Y1882864D1*
X2041432Y1875621D1*
X2045935Y1867551D1*
X2049084Y1858863D1*
X2050799Y1849783D1*
X2051122Y1843701D1*
X2050389Y1834554D1*
X2048187Y1825579D1*
X2044575Y1817073D1*
X2039645Y1809257D1*
X2033524Y1802333D1*
X2026373Y1796481D1*
X2021757Y1793809D1*
X2029072Y1788935D1*
X2035870Y1782675D1*
X2036845Y1781433D1*
X2043701Y1781437D1*
X2052797Y1780324D1*
X2061356Y1777052D1*
X2068880Y1771806D1*
X2076978Y1763791D1*
X2085092Y1755677D1*
X2085090Y2422802D1*
X2085206Y2425773D1*
X2087025Y2434754D1*
X2090956Y2443032D1*
X2096143Y2449510D1*
X2252599Y2605965D1*
X1859344D1*
X1794383Y2541010D1*
X1793800Y2534559D1*
X1791363Y2525760D1*
X1787395Y2517538D1*
X1782022Y2510156D1*
X1775417Y2503853D1*
X1767794Y2498830D1*
X1759395Y2495249D1*
X1750493Y2493225D1*
X1746422Y2493046D1*
X1620466Y2367093D1*
X1618225Y2365015D1*
X1610588Y2359951D1*
X1601947Y2356876D1*
X1601122Y2356702D1*
Y2336279D1*
X1486280D1*
X1486281Y2355195D1*
X1485889Y2354748D1*
X1483756Y2352558D1*
X1481510Y2350484D1*
X1479156Y2348533D1*
X1476702Y2346710D1*
X1474154Y2345020D1*
X1471520Y2343469D1*
X1468807Y2342059D1*
X1466023Y2340796D1*
X1463176Y2339683D1*
X1460273Y2338723D1*
X1457324Y2337919D1*
X1454336Y2337273D1*
X1451318Y2336787D1*
X1448278Y2336462D1*
X1445225Y2336300D1*
X1442168D1*
X1439115Y2336463D1*
X1436075Y2336788D1*
X1433057Y2337275D1*
X1430069Y2337921D1*
X1427119Y2338726D1*
X1424217Y2339686D1*
X1421370Y2340800D1*
X1418586Y2342063D1*
X1415873Y2343473D1*
X1413239Y2345025D1*
X1410692Y2346715D1*
X1408238Y2348539D1*
X1405885Y2350490D1*
X1403639Y2352564D1*
X1401506Y2354755D1*
X1399493Y2357056D1*
X1397605Y2359460D1*
X1395848Y2361962D1*
X1394227Y2364554D1*
X1392746Y2367228D1*
X1391409Y2369978D1*
X1390221Y2372795D1*
X1389184Y2375670D1*
X1388301Y2378598D1*
X1387576Y2381567D1*
X1387010Y2384572D1*
X1386604Y2387602D1*
X1386361Y2390649D1*
X1386280Y2393705D1*
X1386361Y2396761D1*
X1386605Y2399809D1*
X1387011Y2402839D1*
X1387578Y2405843D1*
X1388304Y2408813D1*
X1389187Y2411740D1*
X1390224Y2414616D1*
X1391413Y2417432D1*
X1392750Y2420181D1*
X1394232Y2422856D1*
X1395853Y2425447D1*
X1397611Y2427949D1*
X1399499Y2430353D1*
X1401512Y2432654D1*
X1403645Y2434844D1*
X1405892Y2436917D1*
X1408245Y2438868D1*
X1410700Y2440691D1*
X1413247Y2442381D1*
X1415881Y2443933D1*
X1418594Y2445342D1*
X1421378Y2446605D1*
X1424226Y2447719D1*
X1427128Y2448678D1*
X1430078Y2449483D1*
X1433066Y2450129D1*
X1436084Y2450615D1*
X1439124Y2450939D1*
X1442177Y2451102D1*
X1445234D1*
X1448287Y2450939D1*
X1451327Y2450613D1*
X1454345Y2450127D1*
X1457333Y2449480D1*
X1460282Y2448676D1*
X1463185Y2447715D1*
X1466032Y2446602D1*
X1468816Y2445338D1*
X1471528Y2443929D1*
X1474162Y2442376D1*
X1476710Y2440686D1*
X1479163Y2438863D1*
X1481517Y2436911D1*
X1483763Y2434837D1*
X1485896Y2432647D1*
X1486279Y2432209D1*
X1486280Y2451122D1*
X1597762D1*
X1692841Y2546202D1*
X1692985Y2548304D1*
X1694623Y2557286D1*
X1697838Y2565831D1*
X1702527Y2573664D1*
X1708540Y2580534D1*
X1715683Y2586220D1*
X1723727Y2590540D1*
X1732412Y2593354D1*
X1741169Y2594532D1*
X1781830Y2635192D1*
X1711055Y2705964D1*
X809336Y2705965D1*
X562545Y2459178D1*
X562543Y2454012D1*
X569240Y2449333D1*
X575989Y2443193D1*
X581898Y2436242D1*
X586869Y2428591D1*
X590821Y2420368D1*
X591396Y2418634D1*
X591398Y2464902D1*
X733799D1*
Y2322500D1*
X591398D1*
Y2368506D1*
X590779Y2366929D1*
X586814Y2358712D1*
X581831Y2351070D1*
X575911Y2344127D1*
X569152Y2337999D1*
X561665Y2332785D1*
X553572Y2328571D1*
X545008Y2325427D1*
X536111Y2323404D1*
X527029Y2322535D1*
X525934Y2322571D1*
X481439Y2278072D1*
X481436Y2047109D1*
X481784Y2047754D1*
X483354Y2050385D1*
X485036Y2052946D1*
X486826Y2055433D1*
X488721Y2057840D1*
X490719Y2060164D1*
X492814Y2062399D1*
X495004Y2064542D1*
X497284Y2066589D1*
X499649Y2068536D1*
X502097Y2070379D1*
X504621Y2072116D1*
X507218Y2073742D1*
X509882Y2075255D1*
X512609Y2076652D1*
X515394Y2077930D1*
X518230Y2079088D1*
X521115Y2080122D1*
X524040Y2081031D1*
X527003Y2081814D1*
X529996Y2082468D1*
X533015Y2082993D1*
X536053Y2083387D1*
X539106Y2083651D1*
X542167Y2083783D1*
X545231D1*
X548292Y2083651D1*
X551344Y2083388D1*
X554383Y2082993D1*
X557401Y2082469D1*
X560395Y2081814D1*
X563357Y2081032D1*
X566283Y2080123D1*
X569167Y2079089D1*
X572004Y2077932D1*
X574789Y2076654D1*
X577516Y2075257D1*
X580180Y2073744D1*
X582777Y2072118D1*
X585302Y2070382D1*
X587749Y2068539D1*
X590115Y2066592D1*
X592395Y2064545D1*
X594585Y2062402D1*
X596680Y2060167D1*
X598678Y2057843D1*
X600573Y2055436D1*
X602364Y2052950D1*
X604045Y2050389D1*
X605615Y2047757D1*
X607071Y2045061D1*
X608408Y2042305D1*
X609627Y2039493D1*
X610723Y2036632D1*
X611695Y2033727D1*
X612541Y2030782D1*
X613259Y2027803D1*
X613849Y2024797D1*
X614309Y2021767D1*
X614638Y2018721D1*
X614836Y2015664D1*
X614902Y2012598D1*
X614836Y2009537D1*
X614638Y2006480D1*
X614309Y2003433D1*
X613850Y2000404D1*
X613260Y1997398D1*
X612542Y1994419D1*
X611696Y1991474D1*
X610724Y1988568D1*
X609628Y1985707D1*
X608410Y1982896D1*
X607072Y1980139D1*
X605617Y1977443D1*
X604047Y1974812D1*
X602366Y1972250D1*
X600576Y1969764D1*
X598680Y1967357D1*
X596683Y1965033D1*
X594588Y1962798D1*
X592398Y1960655D1*
X590118Y1958608D1*
X587752Y1956661D1*
X585305Y1954817D1*
X582781Y1953081D1*
X580184Y1951455D1*
X577519Y1949942D1*
X574793Y1948545D1*
X572008Y1947267D1*
X568875Y1946003D1*
X614902Y1946004D1*
Y1881439D1*
X908007Y1881437D1*
X907633Y1882602D1*
X906022Y1891632D1*
X905964Y1902629D1*
Y2080373D1*
X880374Y2080374D1*
Y2207027D1*
X1007028D1*
Y2195320D1*
X1009026Y2196690D1*
X1011626Y2198304D1*
X1014302Y2199790D1*
X1017046Y2201145D1*
X1019852Y2202365D1*
X1022714Y2203449D1*
X1025626Y2204393D1*
X1028579Y2205196D1*
X1031568Y2205854D1*
X1034585Y2206368D1*
X1037623Y2206735D1*
X1040675Y2206955D1*
X1043735Y2207028D1*
X1046794Y2206952D1*
X1049847Y2206729D1*
X1052885Y2206358D1*
X1055901Y2205841D1*
X1058889Y2205179D1*
X1061842Y2204374D1*
X1064752Y2203426D1*
X1067613Y2202340D1*
X1070418Y2201116D1*
X1073160Y2199758D1*
X1075834Y2198269D1*
X1078433Y2196653D1*
X1080951Y2194913D1*
X1083382Y2193054D1*
X1085720Y2191079D1*
X1087960Y2188993D1*
X1090096Y2186802D1*
X1092124Y2184510D1*
X1093694Y2182555D1*
X1099699Y2189243D1*
X1106799Y2195165D1*
X1114686Y2199989D1*
X1123190Y2203614D1*
X1132132Y2205962D1*
X1141321Y2206983D1*
X1150560Y2206655D1*
X1159653Y2204985D1*
X1168407Y2202010D1*
X1176633Y2197791D1*
X1184158Y2192420D1*
X1190820Y2186010D1*
X1196478Y2178698D1*
X1201011Y2170641D1*
X1204323Y2162009D1*
X1206343Y2152988D1*
X1207028Y2143701D1*
X1206362Y2134547D1*
X1204362Y2125521D1*
X1201068Y2116882D1*
X1196552Y2108815D1*
X1190909Y2101492D1*
X1184261Y2095068D1*
X1181436Y2093042D1*
X1181437Y1959325D1*
X1220370Y1920398D1*
X1222386Y1918220D1*
X1227451Y1910582D1*
X1230525Y1901950D1*
X1231437Y1893701D1*
Y1743726D1*
X1231322Y1740755D1*
X1229503Y1731773D1*
X1225572Y1723495D1*
X1220384Y1717017D1*
X1103611Y1600245D1*
X1104345Y1600127D1*
X1107333Y1599480D1*
X1110282Y1598676D1*
X1113185Y1597715D1*
X1116032Y1596602D1*
X1118816Y1595338D1*
X1121528Y1593929D1*
X1124162Y1592376D1*
X1126710Y1590686D1*
X1129163Y1588863D1*
X1131517Y1586911D1*
X1133763Y1584837D1*
X1135896Y1582647D1*
X1137909Y1580346D1*
X1139796Y1577941D1*
X1141553Y1575439D1*
X1143175Y1572848D1*
X1144656Y1570173D1*
X1145992Y1567424D1*
X1147181Y1564607D1*
X1148218Y1561731D1*
X1149100Y1558804D1*
X1149825Y1555834D1*
X1150392Y1552830D1*
X1150797Y1549800D1*
X1151041Y1546752D1*
X1151122Y1543701D1*
X1151040Y1540640D1*
X1150796Y1537593D1*
X1150390Y1534563D1*
X1149824Y1531558D1*
X1149098Y1528589D1*
X1148215Y1525662D1*
X1147178Y1522786D1*
X1145989Y1519969D1*
X1144652Y1517220D1*
X1143170Y1514546D1*
X1141548Y1511954D1*
X1139791Y1509453D1*
X1137903Y1507048D1*
X1135889Y1504748D1*
X1133756Y1502558D1*
X1131510Y1500484D1*
X1129156Y1498533D1*
X1126702Y1496710D1*
X1124154Y1495020D1*
X1121520Y1493469D1*
X1118807Y1492059D1*
X1116023Y1490796D1*
X1113176Y1489683D1*
X1110273Y1488723D1*
X1107324Y1487919D1*
X1104336Y1487273D1*
X1101318Y1486787D1*
X1098278Y1486462D1*
X1095225Y1486300D1*
X1092168D1*
X1089115Y1486463D1*
X1086075Y1486788D1*
X1083057Y1487275D1*
X1080069Y1487921D1*
X1077119Y1488726D1*
X1074217Y1489686D1*
X1071370Y1490800D1*
X1068586Y1492063D1*
X1065873Y1493473D1*
X1063239Y1495025D1*
X1060692Y1496715D1*
X1058238Y1498539D1*
X1055885Y1500490D1*
X1053639Y1502564D1*
X1051506Y1504755D1*
X1051123Y1505193D1*
X1051122Y1486279D1*
X1031431D1*
X1031437Y1301119D1*
X1051122Y1301122D1*
X1051121Y1282207D1*
X1051512Y1282654D1*
X1053645Y1284844D1*
X1055892Y1286917D1*
X1058245Y1288868D1*
X1060700Y1290691D1*
X1063247Y1292381D1*
X1065881Y1293933D1*
X1068594Y1295342D1*
X1071378Y1296605D1*
X1074226Y1297719D1*
X1077128Y1298678D1*
X1080078Y1299483D1*
X1083066Y1300129D1*
X1086084Y1300615D1*
X1089124Y1300939D1*
X1092177Y1301102D1*
X1095234D1*
X1098287Y1300939D1*
X1101327Y1300613D1*
X1104345Y1300127D1*
X1107333Y1299480D1*
X1110282Y1298676D1*
X1113185Y1297715D1*
X1116032Y1296602D1*
X1118816Y1295338D1*
X1121528Y1293929D1*
X1124162Y1292376D1*
X1126710Y1290686D1*
X1129163Y1288863D1*
X1131517Y1286911D1*
X1133763Y1284837D1*
X1135896Y1282647D1*
X1137909Y1280346D1*
X1139796Y1277941D1*
X1141553Y1275439D1*
X1143175Y1272848D1*
X1144656Y1270173D1*
X1145992Y1267424D1*
X1147181Y1264607D1*
X1148218Y1261731D1*
X1149100Y1258804D1*
X1149825Y1255834D1*
X1150392Y1252830D1*
X1150797Y1249800D1*
X1151041Y1246752D1*
X1151122Y1243701D1*
X1151040Y1240640D1*
X1150796Y1237593D1*
X1150390Y1234563D1*
X1149824Y1231558D1*
X1149098Y1228589D1*
X1148215Y1225662D1*
X1147178Y1222786D1*
X1145989Y1219969D1*
X1144652Y1217220D1*
X1143170Y1214546D1*
X1141548Y1211954D1*
X1139791Y1209453D1*
X1137903Y1207048D1*
X1135889Y1204748D1*
X1133756Y1202558D1*
X1131510Y1200484D1*
X1129156Y1198533D1*
X1126702Y1196710D1*
X1124154Y1195020D1*
X1121520Y1193469D1*
X1118807Y1192059D1*
X1116023Y1190796D1*
X1113176Y1189683D1*
X1110273Y1188723D1*
X1107324Y1187919D1*
X1104336Y1187273D1*
X1101318Y1186787D1*
X1098278Y1186462D1*
X1095225Y1186300D1*
X1092168D1*
X1089115Y1186463D1*
X1086075Y1186788D1*
X1083057Y1187275D1*
X1080069Y1187921D1*
X1077119Y1188726D1*
X1074217Y1189686D1*
X1071370Y1190800D1*
X1068586Y1192063D1*
X1065873Y1193473D1*
X1063239Y1195025D1*
X1060692Y1196715D1*
X1058238Y1198539D1*
X1055885Y1200490D1*
X1053639Y1202564D1*
X1051506Y1204755D1*
X1051123Y1205193D1*
X1051122Y1186279D1*
X1031431D1*
X1031437Y1001119D1*
X1051122Y1001122D1*
X1051121Y982207D1*
X1051512Y982654D1*
X1053645Y984844D1*
X1055892Y986917D1*
X1058245Y988868D1*
X1060700Y990691D1*
X1063247Y992381D1*
X1065881Y993933D1*
X1068594Y995342D1*
X1071378Y996605D1*
X1074226Y997719D1*
X1077128Y998678D1*
X1080078Y999483D1*
X1083066Y1000129D1*
X1086084Y1000615D1*
X1089124Y1000939D1*
X1092177Y1001102D1*
X1095234D1*
X1098287Y1000939D1*
X1101327Y1000613D1*
X1104345Y1000127D1*
X1107333Y999480D1*
X1110282Y998676D1*
X1113185Y997715D1*
X1116032Y996602D1*
X1118816Y995338D1*
X1121528Y993929D1*
X1124162Y992376D1*
X1126710Y990686D1*
X1129163Y988863D1*
X1131517Y986911D1*
X1133763Y984837D1*
X1135896Y982647D1*
X1137909Y980346D1*
X1139796Y977941D1*
X1141553Y975439D1*
X1143175Y972848D1*
X1144656Y970173D1*
X1145992Y967424D1*
X1147181Y964607D1*
X1148218Y961731D1*
X1149100Y958804D1*
X1149825Y955834D1*
X1150392Y952830D1*
X1150797Y949800D1*
X1151041Y946752D1*
X1151122Y943701D1*
X1151040Y940640D1*
X1150796Y937593D1*
X1150390Y934563D1*
X1149824Y931558D1*
X1149098Y928589D1*
X1148215Y925662D1*
X1147178Y922786D1*
X1145989Y919969D1*
X1144652Y917220D1*
X1143170Y914546D1*
X1141548Y911954D1*
X1139791Y909453D1*
X1137903Y907048D1*
X1135889Y904748D1*
X1133756Y902558D1*
X1131510Y900484D1*
X1129156Y898533D1*
X1126702Y896710D1*
X1124154Y895020D1*
X1121520Y893469D1*
X1118807Y892059D1*
X1116023Y890796D1*
X1113176Y889683D1*
X1110273Y888723D1*
X1107324Y887919D1*
X1104336Y887273D1*
X1101318Y886787D1*
X1098278Y886462D1*
X1095225Y886300D1*
X1092168D1*
X1089115Y886463D1*
X1086075Y886788D1*
X1083057Y887275D1*
X1080069Y887921D1*
X1077119Y888726D1*
X1074217Y889686D1*
X1071370Y890800D1*
X1068586Y892063D1*
X1065873Y893473D1*
X1063239Y895025D1*
X1060692Y896715D1*
X1058238Y898539D1*
X1055885Y900490D1*
X1053639Y902564D1*
X1051506Y904755D1*
X1051123Y905193D1*
X1051122Y886279D1*
X1031431D1*
X1031436Y751120D1*
X1051122D1*
X1051121Y732209D1*
X1051512Y732656D1*
X1053645Y734846D1*
X1055892Y736920D1*
X1058245Y738871D1*
X1060700Y740694D1*
X1063247Y742383D1*
X1065881Y743935D1*
X1068594Y745345D1*
X1071378Y746608D1*
X1074226Y747721D1*
X1077128Y748681D1*
X1080078Y749485D1*
X1083066Y750131D1*
X1086084Y750617D1*
X1089124Y750942D1*
X1092177Y751104D1*
X1095234D1*
X1098287Y750941D1*
X1101327Y750616D1*
X1104345Y750129D1*
X1107333Y749483D1*
X1110282Y748678D1*
X1113185Y747718D1*
X1116032Y746604D1*
X1118816Y745341D1*
X1121528Y743931D1*
X1124162Y742379D1*
X1126710Y740688D1*
X1129163Y738865D1*
X1131517Y736914D1*
X1133763Y734840D1*
X1135896Y732649D1*
X1137909Y730348D1*
X1139796Y727943D1*
X1141553Y725442D1*
X1143175Y722850D1*
X1144656Y720175D1*
X1145992Y717426D1*
X1147181Y714609D1*
X1148218Y711733D1*
X1149100Y708806D1*
X1149825Y705836D1*
X1150392Y702832D1*
X1150797Y699802D1*
X1151041Y696754D1*
X1151122Y693703D1*
X1151040Y690642D1*
X1150796Y687595D1*
X1150390Y684565D1*
X1149824Y681561D1*
X1149098Y678591D1*
X1148215Y675664D1*
X1147178Y672788D1*
X1145989Y669972D1*
X1144652Y667222D1*
X1143170Y664548D1*
X1141548Y661957D1*
X1139791Y659455D1*
X1137903Y657051D1*
X1135889Y654750D1*
X1133756Y652560D1*
X1131510Y650486D1*
X1129156Y648535D1*
X1126702Y646712D1*
X1124154Y645023D1*
X1121520Y643471D1*
X1118807Y642061D1*
X1116023Y640798D1*
X1113176Y639685D1*
X1110273Y638725D1*
X1107324Y637921D1*
X1104336Y637275D1*
X1101318Y636789D1*
X1098278Y636464D1*
X1095225Y636302D1*
X1092168D1*
X1089115Y636465D1*
X1086075Y636790D1*
X1083057Y637277D1*
X1080069Y637923D1*
X1077119Y638728D1*
X1074217Y639688D1*
X1071370Y640802D1*
X1068586Y642065D1*
X1065873Y643475D1*
X1063239Y645027D1*
X1060692Y646718D1*
X1058238Y648541D1*
X1055885Y650492D1*
X1053639Y652566D1*
X1051506Y654757D1*
X1051123Y655195D1*
X1051122Y639646D1*
X1059335Y631434D1*
X1128064Y631437D1*
X1317017Y820384D1*
X1324236Y826029D1*
X1332602Y829768D1*
X1341632Y831379D1*
X1352625Y831437D1*
X1593591D1*
X1602687Y830324D1*
X1611246Y827052D1*
X1618771Y821806D1*
X1626538Y814121D1*
X1670384Y770274D1*
X1676029Y763056D1*
X1679768Y754690D1*
X1681379Y745660D1*
X1687627Y739861D1*
X1693749Y733140D1*
X1698852Y725616D1*
X1702833Y717442D1*
X1705610Y708785D1*
X1707127Y699821D1*
X1707421Y693701D1*
X1706760Y684546D1*
X1704816Y675665D1*
X1701627Y667151D1*
X1697259Y659178D1*
X1691800Y651907D1*
X1685363Y645487D1*
X1678077Y640049D1*
X1670092Y635702D1*
X1668409Y634966D1*
X1666705Y634278D1*
X1664983Y633639D1*
X1663242Y633051D1*
X1661486Y632513D1*
X1659714Y632025D1*
X1657219Y631437D1*
X1958009D1*
X1980307Y653734D1*
X1941192Y692842D1*
X1932326Y694062D1*
X1923645Y696891D1*
X1915609Y701224D1*
X1908476Y706923D1*
X1902475Y713804D1*
X1897800Y721645D1*
X1894599Y730195D1*
X1892977Y739180D1*
X1892985Y748310D1*
X1894623Y757291D1*
X1897838Y765836D1*
X1902527Y773670D1*
X1908540Y780540D1*
X1915683Y786226D1*
X1923727Y790545D1*
X1932412Y793359D1*
X1941460Y794577D1*
X1950581Y794159D1*
X1959480Y792120D1*
X1967872Y788524D1*
X1975487Y783488D1*
X1982080Y777173D1*
X1987440Y769782D1*
X1991394Y761553D1*
X1993815Y752750D1*
X1994386Y746379D1*
X2059333Y681436D1*
X2578077Y681437D1*
X2748981Y852348D1*
X2805964Y909332D1*
Y1328063D1*
X2583256Y1550778D1*
X2332581Y1801454D1*
X2326373Y1796481D1*
X2321757Y1793809D1*
X2324255Y1792318D1*
X2326800Y1790623D1*
X2329250Y1788795D1*
X2331600Y1786839D1*
X2333842Y1784761D1*
X2335970Y1782566D1*
X2337979Y1780261D1*
X2339862Y1777853D1*
X2341614Y1775348D1*
X2343230Y1772753D1*
X2344706Y1770075D1*
X2346038Y1767323D1*
X2347221Y1764504D1*
X2348252Y1761627D1*
X2349129Y1758698D1*
X2349849Y1755727D1*
X2350409Y1752721D1*
X2350809Y1749690D1*
X2351047Y1746642D1*
X2351122Y1743701D1*
X2351040Y1740640D1*
X2350796Y1737593D1*
X2350390Y1734563D1*
X2349824Y1731558D1*
X2349098Y1728589D1*
X2348215Y1725662D1*
X2347178Y1722786D1*
X2345989Y1719969D1*
X2344652Y1717220D1*
X2343170Y1714546D1*
X2341548Y1711954D1*
X2339791Y1709453D1*
X2337903Y1707048D1*
X2335889Y1704748D1*
X2333756Y1702558D1*
X2331510Y1700484D1*
X2329156Y1698533D1*
X2326702Y1696710D1*
X2324154Y1695020D1*
X2321924Y1693706D1*
X2326053Y1691140D1*
X2333244Y1685336D1*
X2339411Y1678454D1*
X2344394Y1670672D1*
X2348064Y1662191D1*
X2350326Y1653231D1*
X2351121Y1644024D1*
X2351122Y1643701D1*
X2350389Y1634554D1*
X2348187Y1625579D1*
X2344575Y1617073D1*
X2339645Y1609257D1*
X2333524Y1602333D1*
X2326373Y1596481D1*
X2321757Y1593809D1*
X2328868Y1589093D1*
X2335694Y1582864D1*
X2341432Y1575621D1*
X2345935Y1567551D1*
X2349084Y1558863D1*
X2350799Y1549783D1*
X2351122Y1543701D1*
X2350389Y1534554D1*
X2348187Y1525579D1*
X2344575Y1517073D1*
X2339645Y1509257D1*
X2333524Y1502333D1*
X2326373Y1496481D1*
X2321757Y1493809D1*
X2328868Y1489093D1*
X2335694Y1482864D1*
X2341432Y1475621D1*
X2345935Y1467551D1*
X2349084Y1458863D1*
X2350799Y1449783D1*
X2351122Y1443701D1*
X2350389Y1434554D1*
X2348187Y1425579D1*
X2344575Y1417073D1*
X2339645Y1409257D1*
X2333524Y1402333D1*
X2326373Y1396481D1*
X2321757Y1393809D1*
X2328868Y1389093D1*
X2335694Y1382864D1*
X2341432Y1375621D1*
X2345935Y1367551D1*
X2349084Y1358863D1*
X2350799Y1349783D1*
X2351122Y1343701D1*
X2350389Y1334554D1*
X2348187Y1325579D1*
X2344575Y1317073D1*
X2339645Y1309257D1*
X2333524Y1302333D1*
X2326373Y1296481D1*
X2321757Y1293809D1*
X2328868Y1289093D1*
X2335694Y1282864D1*
X2341432Y1275621D1*
X2345935Y1267551D1*
X2349084Y1258863D1*
X2350799Y1249783D1*
X2351122Y1243701D1*
X2350389Y1234554D1*
X2348187Y1225579D1*
X2344575Y1217073D1*
X2339645Y1209257D1*
X2333524Y1202333D1*
X2326373Y1196481D1*
X2321757Y1193809D1*
X2328868Y1189093D1*
X2335694Y1182864D1*
X2341432Y1175621D1*
X2345935Y1167551D1*
X2349084Y1158863D1*
X2350799Y1149783D1*
X2351122Y1143701D1*
X2350389Y1134554D1*
X2348187Y1125579D1*
X2344575Y1117073D1*
X2339645Y1109257D1*
X2333524Y1102333D1*
X2326373Y1096481D1*
X2321757Y1093809D1*
X2329072Y1088935D1*
X2335870Y1082675D1*
X2341576Y1075406D1*
X2346041Y1067316D1*
X2349152Y1058614D1*
X2350826Y1049526D1*
X2351122Y1043701D1*
X2350389Y1034554D1*
X2348187Y1025579D1*
X2344575Y1017073D1*
X2339645Y1009257D1*
X2333524Y1002333D1*
X2326373Y996481D1*
X2318375Y991851D1*
X2309738Y988565D1*
X2300686Y986706D1*
X2291453Y986324D1*
X2282278Y987427D1*
X2273399Y989988D1*
X2265046Y993940D1*
X2257435Y999181D1*
X2250763Y1005575D1*
X2245203Y1012956D1*
X2240900Y1021134D1*
X2237964Y1029896D1*
X2236471Y1039016D1*
X2236461Y1048257D1*
X2237933Y1057380D1*
X2240849Y1066149D1*
X2245134Y1074336D1*
X2250678Y1081730D1*
X2257335Y1088139D1*
X2264934Y1093397D1*
X2265513Y1093672D1*
X2265270Y1093812D1*
X2257636Y1099018D1*
X2250935Y1105382D1*
X2245342Y1112738D1*
X2241002Y1120897D1*
X2238026Y1129645D1*
X2236493Y1138758D1*
X2236441Y1147999D1*
X2237872Y1157129D1*
X2240749Y1165910D1*
X2244997Y1174117D1*
X2250507Y1181536D1*
X2257135Y1187974D1*
X2264711Y1193267D1*
X2265532Y1193662D1*
X2265270Y1193812D1*
X2257636Y1199018D1*
X2250935Y1205382D1*
X2245342Y1212738D1*
X2241002Y1220897D1*
X2238026Y1229645D1*
X2236493Y1238758D1*
X2236441Y1247999D1*
X2237872Y1257129D1*
X2240749Y1265910D1*
X2244997Y1274117D1*
X2250507Y1281536D1*
X2257135Y1287974D1*
X2264711Y1293267D1*
X2265532Y1293662D1*
X2265270Y1293812D1*
X2257636Y1299018D1*
X2250935Y1305382D1*
X2245342Y1312738D1*
X2241002Y1320897D1*
X2238026Y1329645D1*
X2236493Y1338758D1*
X2236441Y1347999D1*
X2237872Y1357129D1*
X2240749Y1365910D1*
X2244997Y1374117D1*
X2250507Y1381536D1*
X2257135Y1387974D1*
X2264711Y1393267D1*
X2265532Y1393662D1*
X2265270Y1393812D1*
X2257636Y1399018D1*
X2250935Y1405382D1*
X2245342Y1412738D1*
X2241002Y1420897D1*
X2238026Y1429645D1*
X2236493Y1438758D1*
X2236441Y1447999D1*
X2237872Y1457129D1*
X2240749Y1465910D1*
X2244997Y1474117D1*
X2250507Y1481536D1*
X2257135Y1487974D1*
X2264711Y1493267D1*
X2265532Y1493662D1*
X2265270Y1493812D1*
X2257636Y1499018D1*
X2250935Y1505382D1*
X2250493Y1505964D1*
X2243725Y1505965D1*
X2240754Y1506080D1*
X2231773Y1507899D1*
X2223495Y1511830D1*
X2217017Y1517017D1*
X2032526Y1701516D1*
X2026373Y1696481D1*
X2021757Y1693809D1*
X2024255Y1692318D1*
X2026800Y1690623D1*
X2029250Y1688795D1*
X2031600Y1686839D1*
X2033842Y1684761D1*
X2035970Y1682566D1*
X2037979Y1680261D1*
X2039862Y1677853D1*
X2041614Y1675348D1*
X2043230Y1672753D1*
X2044706Y1670075D1*
X2046038Y1667323D1*
X2047221Y1664504D1*
X2048252Y1661627D1*
X2049129Y1658698D1*
X2049849Y1655727D1*
X2050409Y1652721D1*
X2050809Y1649690D1*
X2051047Y1646642D1*
X2051122Y1643701D1*
X2051040Y1640640D1*
X2050796Y1637593D1*
X2050390Y1634563D1*
X2049824Y1631558D1*
X2049098Y1628589D1*
X2048215Y1625662D1*
X2047178Y1622786D1*
X2045989Y1619969D1*
X2044652Y1617220D1*
X2043170Y1614546D1*
X2041548Y1611954D1*
X2039791Y1609453D1*
X2037903Y1607048D1*
X2035889Y1604748D1*
X2033756Y1602558D1*
X2031510Y1600484D1*
X2029156Y1598533D1*
X2026702Y1596710D1*
X2024154Y1595020D1*
X2021924Y1593706D1*
X2026053Y1591140D1*
X2033244Y1585336D1*
X2039411Y1578454D1*
X2044394Y1570672D1*
X2048064Y1562191D1*
X2050326Y1553231D1*
X2051121Y1544024D1*
X2051122Y1543701D1*
X2050389Y1534554D1*
X2048187Y1525579D1*
X2044575Y1517073D1*
X2039645Y1509257D1*
X2033524Y1502333D1*
X2026373Y1496481D1*
X2021757Y1493809D1*
X2028868Y1489093D1*
X2035694Y1482864D1*
X2036820Y1481443D1*
X2043677Y1481437D1*
X2046647Y1481322D1*
X2055629Y1479502D1*
X2063906Y1475572D1*
X2070384Y1470384D1*
X2170371Y1370398D1*
X2172386Y1368219D1*
X2177451Y1360582D1*
X2180525Y1351949D1*
X2181437Y1343701D1*
Y1009335D1*
X2259329Y931440D1*
X2378069Y931437D1*
X2686280Y1239648D1*
Y1301122D1*
X2801122D1*
Y1186279D1*
X2782203Y1186277D1*
X2783763Y1184837D1*
X2785896Y1182647D1*
X2787909Y1180346D1*
X2789796Y1177941D1*
X2791553Y1175439D1*
X2793175Y1172848D1*
X2794656Y1170173D1*
X2795992Y1167424D1*
X2797181Y1164607D1*
X2798218Y1161731D1*
X2799100Y1158804D1*
X2799825Y1155834D1*
X2800392Y1152830D1*
X2800797Y1149800D1*
X2801041Y1146752D1*
X2801122Y1143701D1*
X2801040Y1140640D1*
X2800796Y1137593D1*
X2800390Y1134563D1*
X2799824Y1131558D1*
X2799098Y1128589D1*
X2798215Y1125662D1*
X2797178Y1122786D1*
X2795989Y1119969D1*
X2794652Y1117220D1*
X2793170Y1114546D1*
X2791548Y1111954D1*
X2789791Y1109453D1*
X2787903Y1107048D1*
X2785889Y1104748D1*
X2783756Y1102558D1*
X2781510Y1100484D1*
X2779156Y1098533D1*
X2776702Y1096710D1*
X2774154Y1095020D1*
X2771520Y1093469D1*
X2768807Y1092059D1*
X2766023Y1090796D1*
X2763176Y1089683D1*
X2760273Y1088723D1*
X2757324Y1087919D1*
X2754336Y1087273D1*
X2751318Y1086787D1*
X2748278Y1086462D1*
X2745225Y1086300D1*
X2742168D1*
X2739115Y1086463D1*
X2736075Y1086788D1*
X2733057Y1087275D1*
X2730069Y1087921D1*
X2727119Y1088726D1*
X2724217Y1089686D1*
X2721370Y1090800D1*
X2718586Y1092063D1*
X2715873Y1093473D1*
X2713239Y1095025D1*
X2710692Y1096715D1*
X2708238Y1098539D1*
X2705885Y1100490D1*
X2703639Y1102564D1*
X2701506Y1104755D1*
X2699493Y1107056D1*
X2697605Y1109460D1*
X2695848Y1111962D1*
X2694227Y1114554D1*
X2692746Y1117228D1*
X2691409Y1119978D1*
X2690221Y1122795D1*
X2689184Y1125670D1*
X2688301Y1128598D1*
X2687576Y1131567D1*
X2687158Y1133788D1*
X2420384Y867017D1*
X2413166Y861372D1*
X2404800Y857634D1*
X2395770Y856022D1*
X2384326Y855964D1*
X2243701D1*
X2234605Y857077D1*
X2226045Y860349D1*
X2218521Y865595D1*
X2210812Y873223D1*
X2178428Y905606D1*
X1744056Y905609D1*
X1734961Y906721D1*
X1726401Y909994D1*
X1718877Y915239D1*
X1710900Y923135D1*
X1573075Y1060960D1*
X1426387Y1060964D1*
X1423819Y1058884D1*
X1415990Y1054027D1*
X1407402Y1050692D1*
X1398347Y1048992D1*
X1389134Y1048985D1*
X1380076Y1050671D1*
X1371483Y1053992D1*
X1363646Y1058836D1*
X1356832Y1065037D1*
X1351274Y1072385D1*
X1347161Y1080629D1*
X1344633Y1089488D1*
X1343776Y1098661D1*
X1344618Y1107835D1*
X1347133Y1116699D1*
X1351233Y1124949D1*
X1356779Y1132306D1*
X1363582Y1138518D1*
X1371412Y1143374D1*
X1380000Y1146709D1*
X1389055Y1148409D1*
X1398268Y1148417D1*
X1407325Y1146731D1*
X1415919Y1143410D1*
X1423756Y1138566D1*
X1426091Y1136440D1*
X1588680Y1136437D1*
X1591647Y1136322D1*
X1600628Y1134502D1*
X1608906Y1130572D1*
X1615384Y1125384D1*
X1759683Y981086D1*
X2092951Y981081D1*
X2108139D1*
X2107634Y982602D1*
X2106022Y991632D1*
X2105965Y993728D1*
Y1328069D1*
X2032526Y1401516D1*
X2026373Y1396481D1*
X2021757Y1393809D1*
X2028868Y1389093D1*
X2035694Y1382864D1*
X2041432Y1375621D1*
X2045935Y1367551D1*
X2049084Y1358863D1*
X2050799Y1349783D1*
X2051122Y1343701D1*
X2050389Y1334554D1*
X2048187Y1325579D1*
X2044575Y1317073D1*
X2039645Y1309257D1*
X2033524Y1302333D1*
X2026373Y1296481D1*
X2021757Y1293809D1*
X2028868Y1289093D1*
X2035694Y1282864D1*
X2041432Y1275621D1*
X2045935Y1267551D1*
X2049084Y1258863D1*
X2050799Y1249783D1*
X2051122Y1243701D1*
X2050389Y1234554D1*
X2048187Y1225579D1*
X2044575Y1217073D1*
X2039645Y1209257D1*
X2033524Y1202333D1*
X2026373Y1196481D1*
X2021757Y1193809D1*
X2028868Y1189093D1*
X2035694Y1182864D1*
X2041432Y1175621D1*
X2045935Y1167551D1*
X2049084Y1158863D1*
X2050799Y1149783D1*
X2051122Y1143701D1*
X2050389Y1134554D1*
X2048187Y1125579D1*
X2044575Y1117073D1*
X2039645Y1109257D1*
X2033524Y1102333D1*
X2026373Y1096481D1*
X2021757Y1093809D1*
X2029072Y1088935D1*
X2035870Y1082675D1*
X2041576Y1075406D1*
X2046041Y1067316D1*
X2049152Y1058614D1*
X2050826Y1049526D1*
X2051122Y1043701D1*
X2050389Y1034554D1*
X2048187Y1025579D1*
X2044575Y1017073D1*
X2039645Y1009257D1*
X2033524Y1002333D1*
X2026373Y996481D1*
X2018375Y991851D1*
X2009738Y988565D1*
X2000686Y986706D1*
X1991453Y986324D1*
X1982278Y987427D1*
X1973399Y989988D1*
X1965046Y993940D1*
X1957435Y999181D1*
X1950763Y1005575D1*
X1945203Y1012956D1*
X1940900Y1021134D1*
X1937964Y1029896D1*
X1936471Y1039016D1*
X1936461Y1048257D1*
X1937933Y1057380D1*
X1940849Y1066149D1*
X1945134Y1074336D1*
X1950678Y1081730D1*
X1957335Y1088139D1*
X1964934Y1093397D1*
X1965513Y1093672D1*
X1965270Y1093812D1*
X1957636Y1099018D1*
X1950935Y1105382D1*
X1945342Y1112738D1*
X1941002Y1120897D1*
X1938026Y1129645D1*
X1936493Y1138758D1*
X1936441Y1147999D1*
X1937872Y1157129D1*
X1940749Y1165910D1*
X1944997Y1174117D1*
X1950507Y1181536D1*
X1957135Y1187974D1*
X1964711Y1193267D1*
X1965532Y1193662D1*
X1965270Y1193812D1*
X1957636Y1199018D1*
X1950935Y1205382D1*
X1945342Y1212738D1*
X1941002Y1220897D1*
X1938026Y1229645D1*
X1936493Y1238758D1*
X1936441Y1247999D1*
X1937872Y1257129D1*
X1940749Y1265910D1*
X1944997Y1274117D1*
X1950507Y1281536D1*
X1957135Y1287974D1*
X1964711Y1293267D1*
X1965532Y1293662D1*
X1965270Y1293812D1*
X1957636Y1299018D1*
X1950935Y1305382D1*
X1945342Y1312738D1*
X1941002Y1320897D1*
X1938026Y1329645D1*
X1936493Y1338758D1*
X1936441Y1347999D1*
X1937872Y1357129D1*
X1940749Y1365910D1*
X1944997Y1374117D1*
X1950507Y1381536D1*
X1957135Y1387974D1*
X1964711Y1393267D1*
X1965532Y1393662D1*
X1965270Y1393812D1*
X1957636Y1399018D1*
X1950935Y1405382D1*
X1945342Y1412738D1*
X1941002Y1420897D1*
X1938026Y1429645D1*
X1936493Y1438758D1*
X1936441Y1447999D1*
X1937872Y1457129D1*
X1940749Y1465910D1*
X1944997Y1474117D1*
X1950507Y1481536D1*
X1957135Y1487974D1*
X1964711Y1493267D1*
X1965532Y1493662D1*
X1965491Y1493709D1*
X1965270Y1493812D1*
X1957636Y1499018D1*
X1950935Y1505382D1*
X1950493Y1505964D1*
X1909338Y1505965D1*
X1781435Y1378068D1*
X1781434Y1301122D1*
X1801121D1*
Y1186279D1*
X1782205Y1186277D1*
X1783764Y1184837D1*
X1785897Y1182647D1*
X1787910Y1180346D1*
X1789798Y1177941D1*
X1791555Y1175439D1*
X1793176Y1172848D1*
X1794657Y1170173D1*
X1795994Y1167424D1*
X1797182Y1164607D1*
X1798219Y1161731D1*
X1799101Y1158804D1*
X1799827Y1155834D1*
X1800393Y1152830D1*
X1800799Y1149800D1*
X1801042Y1146752D1*
X1801123Y1143701D1*
X1801042Y1140640D1*
X1800798Y1137593D1*
X1800392Y1134563D1*
X1799825Y1131558D1*
X1799099Y1128589D1*
X1798216Y1125662D1*
X1797179Y1122786D1*
X1795990Y1119969D1*
X1794653Y1117220D1*
X1793171Y1114546D1*
X1791549Y1111954D1*
X1789792Y1109453D1*
X1787904Y1107048D1*
X1785891Y1104748D1*
X1783758Y1102558D1*
X1781511Y1100484D1*
X1779158Y1098533D1*
X1776703Y1096710D1*
X1774156Y1095020D1*
X1771522Y1093469D1*
X1768809Y1092059D1*
X1766025Y1090796D1*
X1763177Y1089683D1*
X1760275Y1088723D1*
X1757325Y1087919D1*
X1754337Y1087273D1*
X1751319Y1086787D1*
X1748279Y1086462D1*
X1745226Y1086300D1*
X1742169D1*
X1739116Y1086463D1*
X1736076Y1086788D1*
X1733058Y1087275D1*
X1730070Y1087921D1*
X1727121Y1088726D1*
X1724218Y1089686D1*
X1721371Y1090800D1*
X1718587Y1092063D1*
X1715875Y1093473D1*
X1713241Y1095025D1*
X1710693Y1096715D1*
X1708239Y1098539D1*
X1705886Y1100490D1*
X1703640Y1102564D1*
X1701507Y1104755D1*
X1699494Y1107056D1*
X1697607Y1109460D1*
X1695850Y1111962D1*
X1694228Y1114554D1*
X1692747Y1117228D1*
X1691410Y1119978D1*
X1690222Y1122795D1*
X1689185Y1125670D1*
X1688303Y1128598D1*
X1687577Y1131567D1*
X1687011Y1134572D1*
X1686606Y1137602D1*
X1686362Y1140649D1*
X1686281Y1143705D1*
X1686362Y1146761D1*
X1686607Y1149809D1*
X1687013Y1152839D1*
X1687579Y1155843D1*
X1688305Y1158813D1*
X1689188Y1161740D1*
X1690225Y1164616D1*
X1691414Y1167432D1*
X1692751Y1170181D1*
X1694233Y1172856D1*
X1695855Y1175447D1*
X1697612Y1177949D1*
X1699500Y1180353D1*
X1701514Y1182654D1*
X1703646Y1184844D1*
X1705202Y1186280D1*
X1686278Y1186279D1*
Y1247758D1*
X1683067Y1250966D1*
X1426384Y1250965D1*
X1423819Y1248884D1*
X1415990Y1244027D1*
X1407402Y1240692D1*
X1398347Y1238992D1*
X1389134Y1238985D1*
X1380076Y1240671D1*
X1371483Y1243992D1*
X1363646Y1248836D1*
X1356832Y1255037D1*
X1351274Y1262385D1*
X1347161Y1270629D1*
X1344633Y1279488D1*
X1343776Y1288661D1*
X1344618Y1297835D1*
X1347133Y1306699D1*
X1351233Y1314949D1*
X1356779Y1322306D1*
X1363582Y1328518D1*
X1371412Y1333374D1*
X1380000Y1336709D1*
X1389055Y1338409D1*
X1398268Y1338417D1*
X1407325Y1336731D1*
X1415919Y1333410D1*
X1423756Y1328566D1*
X1426091Y1326440D1*
X1698677Y1326437D1*
X1701655Y1326320D1*
X1705963Y1325732D1*
X1511368Y624244D2*
X1517017Y617017D1*
X1560767Y573267D1*
X1568527Y565588D1*
X1576045Y560349D1*
X1584605Y557077D1*
X1593701Y555964D1*
X1964594D1*
X1975718Y556022D1*
X1984739Y557633D1*
X1993106Y561372D1*
X2000324Y567017D1*
X2034864Y601557D1*
X2040763Y606080D1*
X2043724Y605964D1*
X2593701D1*
X2601950Y606877D1*
X2610582Y609951D1*
X2618226Y615022D1*
X2620399Y617032D1*
X2870384Y867017D1*
X2875572Y873495D1*
X2879502Y881773D1*
X2881322Y890763D1*
X2881437Y893756D1*
Y1343701D1*
X2880525Y1351950D1*
X2877451Y1360582D1*
X2872380Y1368226D1*
X2870366Y1370403D1*
X2370384Y1870384D1*
X2363906Y1875572D1*
X2355628Y1879502D1*
X2346638Y1881322D1*
X2343677Y1881437D1*
X2336845Y1881433D1*
X2335870Y1882675D1*
X2329072Y1888935D1*
X2321893Y1893670D1*
X2321757Y1893809D1*
X2326373Y1896481D1*
X2333524Y1902333D1*
X2339645Y1909257D1*
X2344575Y1917073D1*
X2348187Y1925579D1*
X2350389Y1934554D1*
X2351122Y1943701D1*
X2350799Y1949783D1*
X2349084Y1958863D1*
X2345935Y1967551D1*
X2341432Y1975621D1*
X2335694Y1982864D1*
X2328868Y1989093D1*
X2321864Y1993668D1*
X2321757Y1993809D1*
X2326373Y1996481D1*
X2333524Y2002333D1*
X2339645Y2009257D1*
X2344575Y2017073D1*
X2348187Y2025579D1*
X2350389Y2034554D1*
X2351122Y2043701D1*
X2350799Y2049783D1*
X2349084Y2058863D1*
X2345935Y2067551D1*
X2341432Y2075621D1*
X2335694Y2082864D1*
X2328868Y2089093D1*
X2321864Y2093668D1*
X2321757Y2093809D1*
X2326373Y2096481D1*
X2333524Y2102333D1*
X2339645Y2109257D1*
X2344575Y2117073D1*
X2348187Y2125579D1*
X2350389Y2134554D1*
X2351122Y2143701D1*
X2350799Y2149783D1*
X2349084Y2158863D1*
X2345935Y2167551D1*
X2341432Y2175621D1*
X2335694Y2182864D1*
X2328868Y2189093D1*
X2321864Y2193668D1*
X2321757Y2193809D1*
X2326373Y2196481D1*
X2333524Y2202333D1*
X2336734Y2205964D1*
X3138162Y2205965D1*
X3140267Y2206022D1*
X3149288Y2207634D1*
X3157654Y2211372D1*
X3164873Y2217017D1*
X3415942Y2468092D1*
X3705964Y2178078D1*
X3705967Y1159334D1*
X3367017Y820384D1*
X3361830Y813906D1*
X3357899Y805629D1*
X3356080Y796638D1*
X3355965Y793674D1*
X3355959Y744834D1*
X3352038Y741908D1*
X3345601Y735488D1*
X3343617Y733080D1*
X3339493Y737999D1*
X3332722Y744065D1*
X3325155Y749106D1*
X3316949Y753018D1*
X3308269Y755723D1*
X3299292Y757165D1*
X3290202Y757315D1*
X3281183Y756169D1*
X3272419Y753752D1*
X3264088Y750112D1*
X3256359Y745323D1*
X3249391Y739483D1*
X3243608Y733079D1*
X3241914Y735349D1*
X3235494Y741786D1*
X3228224Y747245D1*
X3220250Y751613D1*
X3211736Y754801D1*
X3202855Y756746D1*
X3193788Y757407D1*
X3184718Y756771D1*
X3175832Y754850D1*
X3167309Y751685D1*
X3159324Y747339D1*
X3152038Y741900D1*
X3145601Y735480D1*
X3143608Y733075D1*
X3141914Y735345D1*
X3135494Y741783D1*
X3128224Y747241D1*
X3120250Y751609D1*
X3111736Y754798D1*
X3102855Y756742D1*
X3093788Y757403D1*
X3084718Y756767D1*
X3075832Y754847D1*
X3067309Y751681D1*
X3059324Y747335D1*
X3052038Y741897D1*
X3045601Y735477D1*
X3043697Y733178D1*
X3041633Y735665D1*
X3039565Y737915D1*
X3037391Y740063D1*
X3035117Y742104D1*
X3032748Y744034D1*
X3030289Y745848D1*
X3027745Y747543D1*
X3025124Y749113D1*
X3022430Y750556D1*
X3019670Y751868D1*
X3016850Y753046D1*
X3013977Y754087D1*
X3011058Y754990D1*
X3008098Y755752D1*
X3005105Y756371D1*
X3002087Y756845D1*
X2999048Y757175D1*
X2995998Y757358D1*
X2992942Y757395D1*
X2989888Y757286D1*
X2986843Y757030D1*
X2983814Y756628D1*
X2980807Y756082D1*
X2977830Y755392D1*
X2974889Y754560D1*
X2971992Y753588D1*
X2969145Y752478D1*
X2966354Y751233D1*
X2963626Y749856D1*
X2960967Y748349D1*
X2958384Y746717D1*
X2955881Y744963D1*
X2953466Y743091D1*
X2951143Y741105D1*
X2948918Y739010D1*
X2946797Y736811D1*
X2944783Y734512D1*
X2942881Y732120D1*
X2941096Y729639D1*
X2939433Y727076D1*
X2937894Y724436D1*
X2936484Y721725D1*
X2935205Y718949D1*
X2934061Y716115D1*
X2933053Y713230D1*
X2932186Y710300D1*
X2931460Y707332D1*
X2930877Y704332D1*
X2930438Y701307D1*
X2930145Y698266D1*
X2929998Y695213D1*
Y692157D1*
X2930144Y689105D1*
X2930437Y686063D1*
X2930875Y683038D1*
X2931457Y680038D1*
X2932183Y677070D1*
X2933050Y674140D1*
X2934056Y671254D1*
X2935200Y668420D1*
X2936479Y665645D1*
X2937888Y662933D1*
X2939427Y660293D1*
X2941090Y657729D1*
X2942874Y655248D1*
X2944775Y652855D1*
X2946789Y650556D1*
X2948910Y648357D1*
X2951135Y646262D1*
X2953457Y644275D1*
X2955872Y642403D1*
X2958374Y640648D1*
X2960957Y639015D1*
X2963616Y637508D1*
X2966343Y636130D1*
X2969134Y634885D1*
X2971981Y633775D1*
X2974878Y632802D1*
X2977819Y631970D1*
X2980795Y631279D1*
X2983802Y630732D1*
X2986831Y630330D1*
X2989877Y630074D1*
X2992931Y629963D1*
X2995986Y630000D1*
X2999037Y630183D1*
X3002075Y630512D1*
X3005094Y630986D1*
X3008087Y631604D1*
X3011046Y632365D1*
X3013966Y633267D1*
X3016839Y634308D1*
X3019659Y635486D1*
X3022419Y636798D1*
X3025113Y638240D1*
X3027735Y639810D1*
X3030279Y641503D1*
X3032738Y643317D1*
X3035108Y645247D1*
X3037383Y647288D1*
X3039557Y649436D1*
X3041625Y651685D1*
X3043793Y654290D1*
X3045487Y652021D1*
X3051907Y645583D1*
X3059177Y640125D1*
X3067151Y635757D1*
X3075665Y632568D1*
X3084546Y630624D1*
X3093613Y629963D1*
X3102683Y630599D1*
X3111569Y632519D1*
X3120092Y635685D1*
X3128077Y640031D1*
X3135363Y645469D1*
X3141800Y651889D1*
X3143793Y654294D1*
X3145487Y652024D1*
X3151907Y645587D1*
X3159177Y640129D1*
X3167151Y635761D1*
X3175665Y632572D1*
X3184546Y630627D1*
X3193613Y629966D1*
X3202683Y630602D1*
X3211569Y632523D1*
X3220092Y635688D1*
X3228077Y640035D1*
X3235363Y645473D1*
X3241800Y651893D1*
X3243784Y654301D1*
X3247908Y649381D1*
X3254679Y643315D1*
X3262246Y638275D1*
X3270452Y634362D1*
X3279132Y631657D1*
X3288109Y630216D1*
X3297199Y630066D1*
X3306218Y631211D1*
X3314982Y633629D1*
X3323313Y637269D1*
X3331042Y642058D1*
X3338010Y647897D1*
X3343793Y654301D1*
X3345487Y652032D1*
X3351907Y645594D1*
X3355989Y642529D1*
X3356022Y641623D1*
X3357634Y632602D1*
X3361372Y624236D1*
X3367017Y617017D1*
X3466999Y517035D1*
X3468527Y515588D1*
X3476045Y510349D1*
X3484605Y507077D1*
X3493701Y505964D1*
X3693674D1*
X3695779Y506022D1*
X3704800Y507634D1*
X3713166Y511372D1*
X3720384Y517017D1*
X4320365Y1116998D1*
X4321813Y1118527D1*
X4327052Y1126045D1*
X4330325Y1134605D1*
X4331437Y1143701D1*
Y1743674D1*
X4331380Y1745779D1*
X4329768Y1754800D1*
X4326029Y1763166D1*
X4320384Y1770384D1*
X4220403Y1870366D1*
X4218875Y1871813D1*
X4211356Y1877052D1*
X4202797Y1880325D1*
X4193701Y1881437D1*
X4043728D1*
X4041623Y1881380D1*
X4032602Y1879768D1*
X4024236Y1876029D1*
X4017017Y1870384D1*
X3981437Y1834804D1*
Y2343701D1*
X3980525Y2351950D1*
X3977451Y2360582D1*
X3972380Y2368226D1*
X3970368Y2370401D1*
X3535558Y2805216D1*
X4355216Y2805221D1*
X4355219Y481707D1*
X432185Y432664D1*
X432190Y1751844D1*
X936280Y1247758D1*
Y1186279D1*
X955964Y1186283D1*
X955971Y1001122D1*
X936280D1*
Y886279D1*
X955964Y886274D1*
X955971Y751120D1*
X936280D1*
Y636277D1*
X956702D1*
X956877Y635452D1*
X959951Y626819D1*
X965022Y619176D1*
X967031Y617003D1*
X1017017Y567017D1*
X1023495Y561830D1*
X1031773Y557899D1*
X1040763Y556080D1*
X1043727Y555965D1*
X1143701D1*
X1151949Y556877D1*
X1160582Y559951D1*
X1168225Y565022D1*
X1170400Y567033D1*
X1359340Y755965D1*
X1479981Y755957D1*
Y629980D1*
X1508552D1*
X1511368Y624244D1*
X543701Y2012598D2*
D14*
X614866D1*
X543701D2*
Y2083763D1*
X662598Y2322536D2*
Y2464866D1*
X733763Y2393701D2*
X662598D1*
X1093701Y1901086D2*
Y1786315D1*
Y1843701D2*
X1151086D1*
X1443701Y2336315D2*
Y2451086D1*
Y2393701D2*
X1386315D1*
X1801086Y2143701D2*
X1686315D1*
X1743701D2*
Y2086315D1*
X1093698Y751088D2*
X1093703Y636318D1*
X1093701Y693703D2*
X1151086Y693706D1*
X1093701Y1001086D2*
Y886315D1*
Y943701D2*
X1151086D1*
X1093701Y1301086D2*
Y1186315D1*
Y1243701D2*
X1151086D1*
X1093701Y1601086D2*
Y1486315D1*
Y1543701D2*
X1151086D1*
X1801087Y1143702D2*
X1686317Y1143699D1*
X1743702Y1143701D2*
X1743704Y1086315D1*
X2801086Y1143701D2*
X2686315D1*
X2743701D2*
Y1086315D1*
X1394189Y1743701D2*
X1496362D1*
X1445276Y1692615D2*
Y1794787D1*
X3143701Y2530016D2*
Y2657385D1*
X2993698Y757364D2*
X2993703Y629995D1*
X2930016Y693677D2*
X2993700Y693679D1*
X2243701Y794590D2*
Y692811D1*
X2192811Y743701D2*
X2294590D1*
X4093701Y1743701D2*
X4157386D1*
X856394Y2455118D2*
X975102D1*
X915748Y2395764D2*
Y2514472D1*
X1043701Y2206992D2*
Y2080410D1*
X1936315Y1643701D2*
X2051086D1*
X2236315Y1743701D2*
X2351086D1*
D16*
X543701Y1874803D3*
D17*
Y2012598D3*
D16*
X662598Y2393701D3*
D17*
X524803D3*
D18*
X1093701Y1843701D3*
D19*
X993701D3*
D18*
X1443701Y2393701D3*
D19*
X1543701D3*
D18*
X1743701Y2143701D3*
D19*
Y2243701D3*
D18*
X1093701Y693703D3*
D19*
X993701Y693699D3*
D18*
X1093701Y943701D3*
D19*
X993701D3*
D18*
X1093701Y1243701D3*
D19*
X993701D3*
D18*
X1093701Y1543701D3*
D19*
X993701D3*
D18*
X1743702Y1143701D3*
D19*
X1743700Y1243701D3*
D18*
X2743701Y1143701D3*
D19*
Y1243701D3*
D20*
X1543701Y693701D3*
D21*
X1643701D3*
D23*
X1445276Y1743701D3*
X1642126D3*
D20*
X3043701Y2593701D3*
D21*
X3143701D3*
X3243701D3*
X3343701D3*
D20*
X3593700Y693701D3*
D21*
X3493700Y693698D3*
X3393700Y693694D3*
X3293700Y693690D3*
X3193700Y693687D3*
X3093700Y693683D3*
X2993700Y693679D3*
D24*
X2243701Y743701D3*
D25*
X1943701D3*
D24*
X1743701Y2543695D3*
D25*
X2043701Y2543706D3*
D20*
X4093701Y1743701D3*
D21*
Y1643701D3*
Y1543701D3*
Y1443701D3*
D26*
X915748Y2632283D3*
D27*
Y2455118D3*
X1171654D3*
Y2632283D3*
D28*
X943701Y2143701D3*
D29*
X1043701D3*
X1143701D3*
D19*
X1993701Y2343701D3*
D18*
Y2243701D3*
Y2143701D3*
Y2043701D3*
Y1943701D3*
Y1843701D3*
Y1743701D3*
Y1643701D3*
Y1543701D3*
Y1443701D3*
Y1343701D3*
Y1243701D3*
Y1143701D3*
Y1043701D3*
X2293701D3*
Y1143701D3*
Y1243701D3*
Y1343701D3*
Y1443701D3*
Y1543701D3*
Y1643701D3*
Y1743701D3*
Y1843701D3*
Y1943701D3*
Y2043701D3*
Y2143701D3*
Y2243701D3*
Y2343701D3*
D30*
X1393701Y1098701D3*
Y1288701D3*
M02*
