M48
INCH
T01C0.022
T02C0.032
T03C0.0335
T04C0.0354
T05C0.0394
T06C0.0433
T07C0.0504
T08C0.0551
%
T01
X+022437Y+007437
X+019437Y+007437
X+020437Y+025437
X+017437Y+025437
T02
X+013937Y+010987
X+013937Y+012887
T03
X+014453Y+017437
X+016421Y+017437
T04
X+019937Y+023437
X+019937Y+022437
X+019937Y+021437
X+019937Y+020437
X+019937Y+019437
X+019937Y+018437
X+019937Y+017437
X+019937Y+016437
X+019937Y+015437
X+019937Y+014437
X+019937Y+013437
X+019937Y+012437
X+019937Y+011437
X+019937Y+010437
X+022937Y+010437
X+022937Y+011437
X+022937Y+012437
X+022937Y+013437
X+022937Y+014437
X+022937Y+015437
X+022937Y+016437
X+022937Y+017437
X+022937Y+018437
X+022937Y+019437
X+022937Y+020437
X+022937Y+021437
X+022937Y+022437
X+022937Y+023437
T05
X+010937Y+018437
X+009937Y+018437
X+009937Y+015437
X+010937Y+015437
X+010937Y+012437
X+009937Y+012437
X+009937Y+009437
X+010937Y+009437
X+010937Y+006937
X+009937Y+006937
X+017437Y+011437
X+017437Y+012437
X+017437Y+021437
X+017437Y+022437
X+015437Y+023937
X+014437Y+023937
X+011717Y+024551
X+011717Y+026323
X+009157Y+026323
X+009157Y+024551
X+027437Y+012437
X+027437Y+011437
T06
X+009437Y+021437
X+010437Y+021437
X+011437Y+021437
T07
X+015437Y+006937
X+016437Y+006937
X+029937Y+006937
X+030937Y+006937
X+031937Y+006937
X+032937Y+006937
X+033937Y+006937
X+034937Y+006937
X+035937Y+006937
X+040937Y+014437
X+040937Y+015437
X+040937Y+016437
X+040937Y+017437
X+033437Y+025937
X+032437Y+025937
X+031437Y+025937
X+030437Y+025937
T08
X+005437Y+018748
X+005437Y+020126
X+005248Y+023937
X+006626Y+023937
T00
M30
