G04 DipTrace 4.2.0.1*
G04 TopSilk.gbr*
%MOIN*%
G04 #@! TF.FileFunction,Legend,Top*
G04 #@! TF.Part,Single*
%ADD10C,0.004724*%
%ADD22C,0.005*%
%ADD65C,0.00772*%
%FSLAX26Y26*%
G04*
G70*
G90*
G75*
G01*
G04 TopSilk*
%LPD*%
X488583Y1817717D2*
D10*
X598819D1*
Y2069685D1*
X488583D1*
Y1817717D1*
X719685Y2338583D2*
Y2448819D1*
X467717D1*
Y2338583D1*
X719685D1*
X973761Y1783701D2*
X1113640D1*
X973761Y1903701D2*
X1113640D1*
Y1783701D2*
G03X1113640Y1903701I60J60000D01*
G01*
X973761D2*
G03X973761Y1783701I-60J-60000D01*
G01*
X1563640Y2453701D2*
X1423761D1*
X1563640Y2333701D2*
X1423761D1*
Y2453701D2*
G03X1423761Y2333701I-60J-60000D01*
G01*
X1563640D2*
G03X1563640Y2453701I60J60000D01*
G01*
X1683701Y2263640D2*
Y2123761D1*
X1803701Y2263640D2*
Y2123761D1*
X1683701D2*
G03X1803701Y2123761I60000J-60D01*
G01*
Y2263640D2*
G03X1683701Y2263640I-60000J60D01*
G01*
X973764Y633698D2*
X1113643Y633704D1*
X973759Y753698D2*
X1113638Y753704D1*
X1113643Y633704D2*
G03X1113638Y753704I58J60000D01*
G01*
X973759Y753698D2*
G03X973764Y633698I-58J-60000D01*
G01*
X973761Y883701D2*
X1113640D1*
X973761Y1003701D2*
X1113640D1*
Y883701D2*
G03X1113640Y1003701I60J60000D01*
G01*
X973761D2*
G03X973761Y883701I-60J-60000D01*
G01*
Y1183701D2*
X1113640D1*
X973761Y1303701D2*
X1113640D1*
Y1183701D2*
G03X1113640Y1303701I60J60000D01*
G01*
X973761D2*
G03X973761Y1183701I-60J-60000D01*
G01*
Y1483701D2*
X1113640D1*
X973761Y1603701D2*
X1113640D1*
Y1483701D2*
G03X1113640Y1603701I60J60000D01*
G01*
X973761D2*
G03X973761Y1483701I-60J-60000D01*
G01*
X1683699Y1263639D2*
X1683703Y1123760D1*
X1803699Y1263642D2*
X1803703Y1123763D1*
X1683703Y1123760D2*
G03X1803703Y1123763I60000J-59D01*
G01*
X1803699Y1263642D2*
G03X1683699Y1263639I-60000J59D01*
G01*
X2683701Y1263640D2*
Y1123761D1*
X2803701Y1263640D2*
Y1123761D1*
X2683701D2*
G03X2803701Y1123761I60000J-60D01*
G01*
Y1263640D2*
G03X2683701Y1263640I-60000J60D01*
G01*
X1476772Y746063D2*
Y641339D1*
X1710630D1*
Y746063D1*
X1476772D1*
G36*
X1534016Y762835D2*
X1534099Y764099D1*
X1534346Y765341D1*
X1534753Y766541D1*
X1535313Y767677D1*
X1536017Y768731D1*
X1536852Y769683D1*
X1537805Y770518D1*
X1538858Y771222D1*
X1539994Y771782D1*
X1541194Y772190D1*
X1542437Y772437D1*
X1543701Y772520D1*
X1544965Y772437D1*
X1546207Y772190D1*
X1547407Y771782D1*
X1548543Y771222D1*
X1549597Y770518D1*
X1550549Y769683D1*
X1551384Y768731D1*
X1552088Y767677D1*
X1552649Y766541D1*
X1553056Y765341D1*
X1553303Y764099D1*
X1553386Y762835D1*
D1*
X1553303Y761570D1*
X1553056Y760328D1*
X1552649Y759128D1*
X1552088Y757992D1*
X1551384Y756939D1*
X1550549Y755986D1*
X1549597Y755151D1*
X1548543Y754447D1*
X1547407Y753887D1*
X1546207Y753480D1*
X1544965Y753232D1*
X1543701Y753150D1*
X1542437Y753232D1*
X1541194Y753480D1*
X1539994Y753887D1*
X1538858Y754447D1*
X1537805Y755151D1*
X1536852Y755986D1*
X1536017Y756939D1*
X1535313Y757992D1*
X1534753Y759128D1*
X1534346Y760328D1*
X1534099Y761570D1*
X1534016Y762835D1*
D1*
G37*
X1303543Y1743701D2*
D22*
G02X1303543Y1743701I240157J0D01*
G01*
X2976772Y2646063D2*
D10*
Y2541339D1*
X3410630D1*
Y2646063D1*
X2976772D1*
G36*
X3034016Y2662835D2*
X3034099Y2664099D1*
X3034346Y2665341D1*
X3034753Y2666541D1*
X3035313Y2667677D1*
X3036017Y2668731D1*
X3036852Y2669683D1*
X3037805Y2670518D1*
X3038858Y2671222D1*
X3039994Y2671782D1*
X3041194Y2672190D1*
X3042437Y2672437D1*
X3043701Y2672520D1*
X3044965Y2672437D1*
X3046207Y2672190D1*
X3047407Y2671782D1*
X3048543Y2671222D1*
X3049597Y2670518D1*
X3050549Y2669683D1*
X3051384Y2668731D1*
X3052088Y2667677D1*
X3052649Y2666541D1*
X3053056Y2665341D1*
X3053303Y2664099D1*
X3053386Y2662835D1*
D1*
X3053303Y2661570D1*
X3053056Y2660328D1*
X3052649Y2659128D1*
X3052088Y2657992D1*
X3051384Y2656939D1*
X3050549Y2655986D1*
X3049597Y2655151D1*
X3048543Y2654447D1*
X3047407Y2653887D1*
X3046207Y2653480D1*
X3044965Y2653232D1*
X3043701Y2653150D1*
X3042437Y2653232D1*
X3041194Y2653480D1*
X3039994Y2653887D1*
X3038858Y2654447D1*
X3037805Y2655151D1*
X3036852Y2655986D1*
X3036017Y2656939D1*
X3035313Y2657992D1*
X3034753Y2659128D1*
X3034346Y2660328D1*
X3034099Y2661570D1*
X3034016Y2662835D1*
D1*
G37*
X3660632Y641342D2*
D10*
X3660628Y746066D1*
X2926769Y746039D1*
X2926773Y641315D1*
X3660632Y641342D1*
G36*
X3603388Y624568D2*
X3603305Y623304D1*
X3603058Y622061D1*
X3602651Y620861D1*
X3602091Y619725D1*
X3601387Y618672D1*
X3600552Y617719D1*
X3599599Y616884D1*
X3598546Y616180D1*
X3597410Y615620D1*
X3596210Y615213D1*
X3594968Y614965D1*
X3593703Y614882D1*
X3592439Y614965D1*
X3591197Y615212D1*
X3589997Y615620D1*
X3588861Y616180D1*
X3587807Y616884D1*
X3586855Y617719D1*
X3586020Y618671D1*
X3585316Y619725D1*
X3584755Y620861D1*
X3584348Y622060D1*
X3584101Y623303D1*
X3584018Y624567D1*
D1*
X3584101Y625831D1*
X3584348Y627074D1*
X3584755Y628273D1*
X3585315Y629410D1*
X3586019Y630463D1*
X3586854Y631416D1*
X3587807Y632251D1*
X3588860Y632955D1*
X3589996Y633515D1*
X3591196Y633922D1*
X3592439Y634170D1*
X3593703Y634252D1*
X3594967Y634170D1*
X3596209Y633923D1*
X3597409Y633515D1*
X3598545Y632955D1*
X3599599Y632251D1*
X3600551Y631416D1*
X3601386Y630464D1*
X3602090Y629410D1*
X3602651Y628274D1*
X3603058Y627074D1*
X3603305Y625832D1*
X3603388Y624568D1*
D1*
G37*
X2173850Y713701D2*
D10*
Y773701D1*
X2013551Y713701D2*
X2173850D1*
X2013551D2*
Y773701D1*
X2173850D1*
X1813550Y2573698D2*
X1813552Y2513698D1*
X1973849Y2573704D2*
X1813550Y2573698D1*
X1973849Y2573704D2*
X1973851Y2513704D1*
X1813552Y2513698D1*
X4146063Y1810630D2*
X4041339D1*
Y1376772D1*
X4146063D1*
Y1810630D1*
G36*
X4162835Y1753386D2*
X4164099Y1753303D1*
X4165341Y1753056D1*
X4166541Y1752649D1*
X4167677Y1752088D1*
X4168731Y1751384D1*
X4169683Y1750549D1*
X4170518Y1749597D1*
X4171222Y1748543D1*
X4171782Y1747407D1*
X4172190Y1746207D1*
X4172437Y1744965D1*
X4172520Y1743701D1*
X4172437Y1742437D1*
X4172190Y1741194D1*
X4171782Y1739994D1*
X4171222Y1738858D1*
X4170518Y1737805D1*
X4169683Y1736852D1*
X4168731Y1736017D1*
X4167677Y1735313D1*
X4166541Y1734753D1*
X4165341Y1734346D1*
X4164099Y1734099D1*
X4162835Y1734016D1*
D1*
X4161570Y1734099D1*
X4160328Y1734346D1*
X4159128Y1734753D1*
X4157992Y1735313D1*
X4156939Y1736017D1*
X4155986Y1736852D1*
X4155151Y1737805D1*
X4154447Y1738858D1*
X4153887Y1739994D1*
X4153480Y1741194D1*
X4153232Y1742437D1*
X4153150Y1743701D1*
X4153232Y1744965D1*
X4153480Y1746207D1*
X4153887Y1747407D1*
X4154447Y1748543D1*
X4155151Y1749597D1*
X4155986Y1750549D1*
X4156939Y1751384D1*
X4157992Y1752088D1*
X4159128Y1752649D1*
X4160328Y1753056D1*
X4161570Y1753303D1*
X4162835Y1753386D1*
D1*
G37*
X972839Y2543701D2*
D10*
G02X972839Y2543701I70862J0D01*
G01*
X953146Y2425584D2*
X1134256D1*
X1161825Y2504304D2*
Y2583073D1*
X1134256Y2661818D2*
X968900D1*
X925576Y2583073D2*
Y2504304D1*
X984655Y2543688D2*
G02X984655Y2543688I59046J0D01*
G01*
X846850Y2250000D2*
Y2072835D1*
X1240551D1*
Y2250000D1*
X846850D1*
Y2214567D2*
X1240551D1*
X2041337Y2402362D2*
Y985039D1*
X2246064Y2402362D2*
Y985039D1*
X2041337D2*
X2246064D1*
X2041337Y2402362D2*
X2120070D1*
X2246064D2*
X2167332D1*
X2120070D2*
G03X2167332Y2402362I23631J104D01*
G01*
X1486575Y1054037D2*
Y1333365D1*
X1300827Y1054037D2*
Y1333365D1*
Y1054037D2*
G03X1486575Y1054037I92874J8216D01*
G01*
Y1333365D2*
G03X1300827Y1333365I-92874J-8216D01*
G01*
X424976Y1891176D2*
D65*
X422545Y1895984D1*
X415415Y1903169D1*
X465600D1*
X427353Y1921040D2*
X424976D1*
X420168Y1923417D1*
X417791Y1925793D1*
X415415Y1930602D1*
Y1940164D1*
X417791Y1944917D1*
X420168Y1947293D1*
X424976Y1949725D1*
X429730D1*
X434538Y1947293D1*
X441668Y1942540D1*
X465600Y1918608D1*
Y1952102D1*
X432106Y1967541D2*
X465600Y1981911D1*
X432106Y1996226D1*
X603825Y2265415D2*
X627701D1*
X630078Y2286915D1*
X627701Y2284538D1*
X620516Y2282106D1*
X613386D1*
X606201Y2284538D1*
X601393Y2289291D1*
X599016Y2296476D1*
Y2301230D1*
X601393Y2308415D1*
X606201Y2313223D1*
X613386Y2315600D1*
X620516D1*
X627701Y2313223D1*
X630078Y2310791D1*
X632510Y2306038D1*
X583577Y2282106D2*
X569207Y2315600D1*
X554892Y2282106D1*
X1047919Y1964986D2*
X1045543Y1969739D1*
X1040734Y1974547D1*
X1035981Y1976924D1*
X1026420D1*
X1021611Y1974547D1*
X1016858Y1969739D1*
X1014426Y1964986D1*
X1012049Y1957801D1*
Y1945807D1*
X1014426Y1938677D1*
X1016858Y1933869D1*
X1021611Y1929116D1*
X1026420Y1926684D1*
X1035981D1*
X1040734Y1929116D1*
X1045543Y1933869D1*
X1047919Y1938677D1*
X1063359Y1967307D2*
X1068167Y1969739D1*
X1075352Y1976869D1*
Y1926684D1*
X1500232Y2272416D2*
X1502609Y2267663D1*
X1507417Y2262854D1*
X1512170Y2260478D1*
X1521732D1*
X1526540Y2262854D1*
X1531294Y2267663D1*
X1533725Y2272416D1*
X1536102Y2279601D1*
Y2291594D1*
X1533725Y2298724D1*
X1531294Y2303533D1*
X1526540Y2308286D1*
X1521732Y2310718D1*
X1512170D1*
X1507417Y2308286D1*
X1502609Y2303533D1*
X1500232Y2298724D1*
X1482361Y2272471D2*
Y2270095D1*
X1479984Y2265286D1*
X1477608Y2262910D1*
X1472799Y2260533D1*
X1463238D1*
X1458485Y2262910D1*
X1456108Y2265286D1*
X1453676Y2270095D1*
Y2274848D1*
X1456108Y2279656D1*
X1460861Y2286786D1*
X1484793Y2310718D1*
X1451300D1*
X1864986Y2200232D2*
X1869739Y2202609D1*
X1874547Y2207417D1*
X1876924Y2212170D1*
Y2221732D1*
X1874547Y2226540D1*
X1869739Y2231294D1*
X1864986Y2233725D1*
X1857801Y2236102D1*
X1845807D1*
X1838677Y2233725D1*
X1833869Y2231294D1*
X1829116Y2226540D1*
X1826684Y2221732D1*
Y2212170D1*
X1829116Y2207417D1*
X1833869Y2202609D1*
X1838677Y2200232D1*
X1876869Y2179984D2*
Y2153731D1*
X1857745Y2168046D1*
Y2160861D1*
X1855369Y2156108D1*
X1852992Y2153731D1*
X1845807Y2151300D1*
X1841054D1*
X1833869Y2153731D1*
X1829060Y2158485D1*
X1826684Y2165670D1*
Y2172855D1*
X1829060Y2179984D1*
X1831492Y2182361D1*
X1836246Y2184793D1*
X1035976Y814985D2*
X1033599Y819738D1*
X1028790Y824547D1*
X1024037Y826923D1*
X1014475D1*
X1009667Y824546D1*
X1004914Y819737D1*
X1002482Y814984D1*
X1000106Y807799D1*
X1000107Y795805D1*
X1002484Y788676D1*
X1004916Y783867D1*
X1009669Y779114D1*
X1014478Y776683D1*
X1024039D1*
X1028792Y779115D1*
X1033601Y783868D1*
X1035977Y788677D1*
X1075348Y776685D2*
X1075346Y826870D1*
X1051416Y793431D1*
X1087286Y793432D1*
X1037169Y1064986D2*
X1034793Y1069739D1*
X1029984Y1074547D1*
X1025231Y1076924D1*
X1015670D1*
X1010861Y1074547D1*
X1006108Y1069739D1*
X1003676Y1064986D1*
X1001300Y1057801D1*
Y1045807D1*
X1003676Y1038677D1*
X1006108Y1033869D1*
X1010861Y1029116D1*
X1015670Y1026684D1*
X1025231D1*
X1029984Y1029116D1*
X1034793Y1033869D1*
X1037169Y1038677D1*
X1081294Y1076869D2*
X1057417D1*
X1055041Y1055369D1*
X1057417Y1057745D1*
X1064602Y1060177D1*
X1071732D1*
X1078917Y1057745D1*
X1083725Y1052992D1*
X1086102Y1045807D1*
Y1041054D1*
X1083725Y1033869D1*
X1078917Y1029060D1*
X1071732Y1026684D1*
X1064602D1*
X1057417Y1029060D1*
X1055041Y1031492D1*
X1052609Y1036246D1*
X1038385Y1364986D2*
X1036009Y1369739D1*
X1031200Y1374547D1*
X1026447Y1376924D1*
X1016886D1*
X1012077Y1374547D1*
X1007324Y1369739D1*
X1004892Y1364986D1*
X1002515Y1357801D1*
Y1345807D1*
X1004892Y1338677D1*
X1007324Y1333869D1*
X1012077Y1329116D1*
X1016886Y1326684D1*
X1026447D1*
X1031200Y1329116D1*
X1036009Y1333869D1*
X1038385Y1338677D1*
X1082510Y1369739D2*
X1080133Y1374492D1*
X1072948Y1376869D1*
X1068195D1*
X1061010Y1374492D1*
X1056201Y1367307D1*
X1053825Y1355369D1*
Y1343431D1*
X1056201Y1333869D1*
X1061010Y1329060D1*
X1068195Y1326684D1*
X1070571D1*
X1077701Y1329060D1*
X1082510Y1333869D1*
X1084886Y1341054D1*
Y1343431D1*
X1082510Y1350616D1*
X1077701Y1355369D1*
X1070571Y1357745D1*
X1068195D1*
X1061010Y1355369D1*
X1056201Y1350616D1*
X1053825Y1343431D1*
X1037169Y1664986D2*
X1034793Y1669739D1*
X1029984Y1674547D1*
X1025231Y1676924D1*
X1015670D1*
X1010861Y1674547D1*
X1006108Y1669739D1*
X1003676Y1664986D1*
X1001300Y1657801D1*
Y1645807D1*
X1003676Y1638677D1*
X1006108Y1633869D1*
X1010861Y1629116D1*
X1015670Y1626684D1*
X1025231D1*
X1029984Y1629116D1*
X1034793Y1633869D1*
X1037169Y1638677D1*
X1062170Y1626684D2*
X1086102Y1676869D1*
X1052609D1*
X1864986Y1200208D2*
X1869739Y1202584D1*
X1874547Y1207393D1*
X1876923Y1212146D1*
Y1221708D1*
X1874546Y1226516D1*
X1869738Y1231269D1*
X1864985Y1233701D1*
X1857800Y1236077D1*
X1845806D1*
X1838676Y1233700D1*
X1833868Y1231268D1*
X1829115Y1226515D1*
X1826683Y1221706D1*
Y1212145D1*
X1829115Y1207392D1*
X1833869Y1202583D1*
X1838677Y1200207D1*
X1876869Y1172830D2*
X1874492Y1179960D1*
X1869739Y1182392D1*
X1864931D1*
X1860178Y1179960D1*
X1857746Y1175207D1*
X1855369Y1165645D1*
X1852993Y1158460D1*
X1848185Y1153706D1*
X1843432Y1151330D1*
X1836247D1*
X1831493Y1153706D1*
X1829061Y1156083D1*
X1826685Y1163268D1*
X1826684Y1172829D1*
X1829061Y1179959D1*
X1831493Y1182391D1*
X1836246Y1184768D1*
X1843431D1*
X1848184Y1182391D1*
X1852993Y1177583D1*
X1855369Y1170453D1*
X1857746Y1160892D1*
X1860178Y1156083D1*
X1864931Y1153707D1*
X1869740D1*
X1874493Y1156084D1*
X1876869Y1163269D1*
Y1172830D1*
X2864986Y1199044D2*
X2869739Y1201420D1*
X2874547Y1206229D1*
X2876924Y1210982D1*
Y1220544D1*
X2874547Y1225352D1*
X2869739Y1230105D1*
X2864986Y1232537D1*
X2857801Y1234914D1*
X2845807D1*
X2838677Y1232537D1*
X2833869Y1230105D1*
X2829116Y1225352D1*
X2826684Y1220544D1*
Y1210982D1*
X2829116Y1206229D1*
X2833869Y1201420D1*
X2838677Y1199044D1*
X2860177Y1152488D2*
X2852992Y1154920D1*
X2848184Y1159673D1*
X2845807Y1166858D1*
Y1169234D1*
X2848184Y1176420D1*
X2852992Y1181173D1*
X2860177Y1183605D1*
X2862554D1*
X2869739Y1181173D1*
X2874492Y1176420D1*
X2876869Y1169234D1*
Y1166858D1*
X2874492Y1159673D1*
X2869739Y1154920D1*
X2860177Y1152488D1*
X2848184D1*
X2836246Y1154920D1*
X2829060Y1159673D1*
X2826684Y1166858D1*
Y1171611D1*
X2829060Y1178796D1*
X2833869Y1181173D1*
X1552607Y845743D2*
X1547854D1*
X1543045Y843366D1*
X1540669Y836181D1*
Y795503D1*
X1533484Y828996D2*
X1550230D1*
X1568046Y845743D2*
Y795503D1*
X1583485Y814626D2*
X1612170D1*
Y819434D1*
X1609794Y824243D1*
X1607417Y826620D1*
X1602609Y828996D1*
X1595424D1*
X1590670Y826620D1*
X1585862Y821811D1*
X1583485Y814626D1*
Y809873D1*
X1585862Y802688D1*
X1590670Y797935D1*
X1595424Y795503D1*
X1602609D1*
X1607417Y797935D1*
X1612170Y802688D1*
X1627610Y828996D2*
X1653918Y795503D1*
Y828996D2*
X1627610Y795503D1*
X1491176Y2066924D2*
Y2016684D1*
X1519861D1*
X1568793Y2059739D2*
X1564040Y2064547D1*
X1556855Y2066924D1*
X1547293D1*
X1540108Y2064547D1*
X1535300Y2059739D1*
Y2054986D1*
X1537732Y2050177D1*
X1540108Y2047801D1*
X1544861Y2045424D1*
X1559232Y2040616D1*
X1564040Y2038239D1*
X1566417Y2035807D1*
X1568793Y2031054D1*
Y2023869D1*
X1564040Y2019116D1*
X1556855Y2016684D1*
X1547293D1*
X1540108Y2019116D1*
X1535300Y2023869D1*
X1584232Y2057307D2*
X1589041Y2059739D1*
X1596226Y2066869D1*
Y2016684D1*
X3138237Y2728996D2*
X3133484Y2726620D1*
X3128675Y2721811D1*
X3126299Y2714626D1*
Y2709873D1*
X3128675Y2702688D1*
X3133484Y2697935D1*
X3138237Y2695503D1*
X3145422D1*
X3150230Y2697935D1*
X3154984Y2702688D1*
X3157415Y2709873D1*
Y2714626D1*
X3154984Y2721811D1*
X3150230Y2726620D1*
X3145422Y2728996D1*
X3138237D1*
X3172855Y2745743D2*
Y2695503D1*
X3188294Y2714626D2*
X3216979D1*
Y2719434D1*
X3214602Y2724243D1*
X3212226Y2726620D1*
X3207417Y2728996D1*
X3200232D1*
X3195479Y2726620D1*
X3190670Y2721811D1*
X3188294Y2714626D1*
Y2709873D1*
X3190670Y2702688D1*
X3195479Y2697935D1*
X3200232Y2695503D1*
X3207417D1*
X3212226Y2697935D1*
X3216979Y2702688D1*
X3261103Y2745743D2*
Y2695503D1*
Y2721811D2*
X3256350Y2726620D1*
X3251541Y2728996D1*
X3244356D1*
X3239603Y2726620D1*
X3234795Y2721811D1*
X3232418Y2714626D1*
Y2709873D1*
X3234795Y2702688D1*
X3239603Y2697935D1*
X3244356Y2695503D1*
X3251541D1*
X3256350Y2697935D1*
X3261103Y2702688D1*
X3436257Y567962D2*
X3414702Y567961D1*
X3407572Y565584D1*
X3405140Y563152D1*
X3402764Y558399D1*
Y551214D1*
X3405141Y546461D1*
X3407573Y544029D1*
X3414702Y541653D1*
X3436258Y541654D1*
X3436256Y591894D1*
X3387324Y558398D2*
Y582330D1*
X3384947Y589460D1*
X3380138Y591891D1*
X3372953D1*
X3368200Y589459D1*
X3361015Y582329D1*
X3361016Y558397D2*
X3361015Y591891D1*
X3345577Y541650D2*
X3345576Y591890D1*
X3303829Y565580D2*
X3306206Y560772D1*
X3313391Y558396D1*
X3320576D1*
X3327761Y560773D1*
X3330137Y565581D1*
X3327761Y570334D1*
X3322952Y572766D1*
X3311014Y575142D1*
X3306205Y577519D1*
X3303828Y582327D1*
Y584704D1*
X3306205Y589457D1*
X3313390Y591889D1*
X3320575D1*
X3327760Y589458D1*
X3330137Y584705D1*
X3288390Y572765D2*
X3259705Y572764D1*
Y567955D1*
X3262082Y563147D1*
X3264458Y560770D1*
X3269267Y558394D1*
X3276452D1*
X3281205Y560771D1*
X3286013Y565580D1*
X3288390Y572765D1*
X3288389Y577518D1*
X3286012Y584703D1*
X3281204Y589456D1*
X3276451Y591888D1*
X3269266Y591887D1*
X3264457Y589455D1*
X3259704Y584702D1*
X3232328Y558393D2*
X3237081Y560769D1*
X3241889Y565578D1*
X3244265Y572763D1*
Y577516D1*
X3241888Y584701D1*
X3237080Y589454D1*
X3232326Y591886D1*
X3225141D1*
X3220333Y589454D1*
X3215580Y584700D1*
X3213148Y577515D1*
X3213149Y572762D1*
X3215581Y565577D1*
X3220334Y560769D1*
X3225143Y558392D1*
X3232328Y558393D1*
X3197710Y558391D2*
X3171400Y591884D1*
X3171402Y558390D2*
X3197709Y591885D1*
X3155963Y541643D2*
X3153586Y544020D1*
X3151155Y541643D1*
X3153586Y539211D1*
X3155963Y541643D1*
X3153586Y558390D2*
X3153585Y591883D1*
X2052488Y822992D2*
X2073988D1*
X2081173Y825424D1*
X2083605Y827801D1*
X2085981Y832554D1*
Y837362D1*
X2083605Y842115D1*
X2081173Y844547D1*
X2073988Y846924D1*
X2052488D1*
Y796684D1*
X2069234Y822992D2*
X2085981Y796684D1*
X2103852Y834930D2*
Y837307D1*
X2106229Y842115D1*
X2108605Y844492D1*
X2113414Y846869D1*
X2122976D1*
X2127729Y844492D1*
X2130105Y842115D1*
X2132537Y837307D1*
Y832554D1*
X2130105Y827745D1*
X2125352Y820616D1*
X2101420Y796684D1*
X2134914D1*
X1933701Y2464411D2*
X1912201Y2464410D1*
X1905016Y2461978D1*
X1902584Y2459601D1*
X1900208Y2454848D1*
Y2450040D1*
X1902585Y2445286D1*
X1905017Y2442855D1*
X1912202Y2440478D1*
X1933702Y2440479D1*
X1933700Y2490719D1*
X1916954Y2464410D2*
X1900206Y2490718D1*
X1856084Y2447661D2*
X1858461Y2442908D1*
X1865646Y2440532D1*
X1870399D1*
X1877584Y2442909D1*
X1882392Y2450094D1*
X1884768Y2462033D1*
Y2473971D1*
X1882391Y2483532D1*
X1877582Y2488341D1*
X1870397Y2490717D1*
X1868021D1*
X1860891Y2488340D1*
X1856083Y2483531D1*
X1853706Y2476346D1*
Y2473970D1*
X1856083Y2466785D1*
X1860892Y2462032D1*
X1868022Y2459655D1*
X1870398D1*
X1877583Y2462032D1*
X1882391Y2466786D1*
X1884768Y2473971D1*
X4228996Y1642661D2*
X4195503D1*
X4214626D2*
X4221811Y1640229D1*
X4226620Y1635476D1*
X4228996Y1630668D1*
Y1623482D1*
X4245743Y1600858D2*
X4205064D1*
X4197935Y1598482D1*
X4195503Y1593673D1*
Y1588920D1*
X4228996Y1608043D2*
Y1591297D1*
X4221811Y1544741D2*
X4226620Y1549549D1*
X4228996Y1554357D1*
Y1561487D1*
X4226620Y1566296D1*
X4221811Y1571049D1*
X4214626Y1573481D1*
X4209873D1*
X4202688Y1571049D1*
X4197935Y1566296D1*
X4195503Y1561487D1*
Y1554357D1*
X4197935Y1549549D1*
X4202688Y1544741D1*
X1046731Y2731786D2*
X1041978Y2736595D1*
X1034793Y2738971D1*
X1025231D1*
X1018046Y2736595D1*
X1013238Y2731786D1*
Y2727033D1*
X1015670Y2722224D1*
X1018046Y2719848D1*
X1022799Y2717471D1*
X1037169Y2712663D1*
X1041978Y2710286D1*
X1044354Y2707854D1*
X1046731Y2703101D1*
Y2695916D1*
X1041978Y2691163D1*
X1034793Y2688731D1*
X1025231D1*
X1018046Y2691163D1*
X1013238Y2695916D1*
X1062170Y2729354D2*
X1066979Y2731786D1*
X1074164Y2738916D1*
Y2688731D1*
X1013238Y2323223D2*
Y2287353D1*
X1015614Y2280168D1*
X1020423Y2275415D1*
X1027608Y2272983D1*
X1032361D1*
X1039546Y2275415D1*
X1044354Y2280168D1*
X1046731Y2287353D1*
Y2323223D1*
X1062170Y2313606D2*
X1066979Y2316038D1*
X1074164Y2323168D1*
Y2272983D1*
X2102488Y2475585D2*
Y2439715D1*
X2104864Y2432530D1*
X2109673Y2427777D1*
X2116858Y2425345D1*
X2121611D1*
X2128796Y2427777D1*
X2133605Y2432530D1*
X2135981Y2439715D1*
Y2475585D1*
X2153852Y2463592D2*
Y2465968D1*
X2156229Y2470777D1*
X2158605Y2473153D1*
X2163414Y2475530D1*
X2172976D1*
X2177729Y2473153D1*
X2180105Y2470777D1*
X2182537Y2465968D1*
Y2461215D1*
X2180105Y2456407D1*
X2175352Y2449277D1*
X2151420Y2425345D1*
X2184914D1*
X1227604Y1160861D2*
X1251535Y1179984D1*
X1277844D1*
X1227604Y1199108D2*
X1251535Y1179984D1*
X1237221Y1214547D2*
X1234789Y1219355D1*
X1227659Y1226540D1*
X1277844D1*
M02*
